  0
SECTION
  2
HEADER
  9
$ACADVER
  1
AC1015
  9
$ACADMAINTVER
 70
     6
  9
$DWGCODEPAGE
  3
ANSI_1252
  9
$INSBASE
 10
0.0
 20
0.0
 30
0.0
  9
$EXTMIN
 10
0.0
 20
0.0
 30
0.0
  9
$EXTMAX
 10
192.0
 20
192.0003389931
 30
0.0
  9
$LIMMIN
 10
0.0
 20
0.0
  9
$LIMMAX
 10
420.0
 20
297.0
  9
$ORTHOMODE
 70
     0
  9
$REGENMODE
 70
     1
  9
$FILLMODE
 70
     1
  9
$QTEXTMODE
 70
     0
  9
$MIRRTEXT
 70
     1
  9
$LTSCALE
 40
1.0
  9
$ATTMODE
 70
     1
  9
$TEXTSIZE
 40
3.5
  9
$TRACEWID
 40
1.0
  9
$TEXTSTYLE
  7
Standard
  9
$CLAYER
  8
0
  9
$CELTYPE
  6
ByLayer
  9
$CECOLOR
 62
   256
  9
$CELTSCALE
 40
1.0
  9
$DISPSILH
 70
     0
  9
$DIMSCALE
 40
1.0
  9
$DIMASZ
 40
3.302
  9
$DIMEXO
 40
1.0
  9
$DIMDLI
 40
3.75
  9
$DIMRND
 40
0.0
  9
$DIMDLE
 40
0.0
  9
$DIMEXE
 40
1.0
  9
$DIMTP
 40
0.0
  9
$DIMTM
 40
0.0
  9
$DIMTXT
 40
3.5
  9
$DIMCEN
 40
2.5
  9
$DIMTSZ
 40
0.0
  9
$DIMTOL
 70
     0
  9
$DIMLIM
 70
     0
  9
$DIMTIH
 70
     1
  9
$DIMTOH
 70
     1
  9
$DIMSE1
 70
     0
  9
$DIMSE2
 70
     0
  9
$DIMTAD
 70
     1
  9
$DIMZIN
 70
     0
  9
$DIMBLK
  1

  9
$DIMASO
 70
     1
  9
$DIMSHO
 70
     1
  9
$DIMPOST
  1

  9
$DIMAPOST
  1

  9
$DIMALT
 70
     0
  9
$DIMALTD
 70
     3
  9
$DIMALTF
 40
0.0393700787
  9
$DIMLFAC
 40
1.0
  9
$DIMTOFL
 70
     1
  9
$DIMTVP
 40
0.0
  9
$DIMTIX
 70
     0
  9
$DIMSOXD
 70
     0
  9
$DIMSAH
 70
     0
  9
$DIMBLK1
  1

  9
$DIMBLK2
  1

  9
$DIMSTYLE
  2
ISO-25
  9
$DIMCLRD
 70
     0
  9
$DIMCLRE
 70
     0
  9
$DIMCLRT
 70
     0
  9
$DIMTFAC
 40
1.0
  9
$DIMGAP
 40
1.524
  9
$DIMJUST
 70
     0
  9
$DIMSD1
 70
     0
  9
$DIMSD2
 70
     0
  9
$DIMTOLJ
 70
     0
  9
$DIMTZIN
 70
     0
  9
$DIMALTZ
 70
     0
  9
$DIMALTTZ
 70
     0
  9
$DIMUPT
 70
     0
  9
$DIMDEC
 70
     2
  9
$DIMTDEC
 70
     2
  9
$DIMALTU
 70
     2
  9
$DIMALTTD
 70
     3
  9
$DIMTXSTY
  7
Standard
  9
$DIMAUNIT
 70
     0
  9
$DIMADEC
 70
     2
  9
$DIMALTRND
 40
0.0
  9
$DIMAZIN
 70
     0
  9
$DIMDSEP
 70
    44
  9
$DIMATFIT
 70
     3
  9
$DIMFRAC
 70
     0
  9
$DIMLDRBLK
  1

  9
$DIMLUNIT
 70
     2
  9
$DIMLWD
 70
    -2
  9
$DIMLWE
 70
    -2
  9
$DIMTMOVE
 70
     0
  9
$LUNITS
 70
     2
  9
$LUPREC
 70
     2
  9
$SKETCHINC
 40
1.0
  9
$FILLETRAD
 40
10.0
  9
$AUNITS
 70
     0
  9
$AUPREC
 70
     2
  9
$MENU
  1
.
  9
$ELEVATION
 40
0.0
  9
$PELEVATION
 40
0.0
  9
$THICKNESS
 40
0.0
  9
$LIMCHECK
 70
     0
  9
$CHAMFERA
 40
0.0
  9
$CHAMFERB
 40
0.0
  9
$CHAMFERC
 40
0.0
  9
$CHAMFERD
 40
0.0
  9
$SKPOLY
 70
     0
  9
$TDCREATE
 40
2458027.625242454
  9
$TDUCREATE
 40
2458027.541909121
  9
$TDUPDATE
 40
2458027.625271979
  9
$TDUUPDATE
 40
2458027.541938646
  9
$TDINDWG
 40
0.0000000116
  9
$TDUSRTIMER
 40
0.0000000116
  9
$USRTIMER
 70
     1
  9
$ANGBASE
 50
0.0
  9
$ANGDIR
 70
     0
  9
$PDMODE
 70
     0
  9
$PDSIZE
 40
-1.0
  9
$PLINEWID
 40
0.0
  9
$SPLFRAME
 70
     0
  9
$SPLINETYPE
 70
     6
  9
$SPLINESEGS
 70
     8
  9
$HANDSEED
  5
3DA
  9
$SURFTAB1
 70
     6
  9
$SURFTAB2
 70
     6
  9
$SURFTYPE
 70
     6
  9
$SURFU
 70
     6
  9
$SURFV
 70
     6
  9
$UCSBASE
  2

  9
$UCSNAME
  2

  9
$UCSORG
 10
0.0
 20
0.0
 30
0.0
  9
$UCSXDIR
 10
1.0
 20
0.0
 30
0.0
  9
$UCSYDIR
 10
0.0
 20
1.0
 30
0.0
  9
$UCSORTHOREF
  2

  9
$UCSORTHOVIEW
 70
     0
  9
$UCSORGTOP
 10
0.0
 20
0.0
 30
0.0
  9
$UCSORGBOTTOM
 10
0.0
 20
0.0
 30
0.0
  9
$UCSORGLEFT
 10
0.0
 20
0.0
 30
0.0
  9
$UCSORGRIGHT
 10
0.0
 20
0.0
 30
0.0
  9
$UCSORGFRONT
 10
0.0
 20
0.0
 30
0.0
  9
$UCSORGBACK
 10
0.0
 20
0.0
 30
0.0
  9
$PUCSBASE
  2

  9
$PUCSNAME
  2

  9
$PUCSORG
 10
0.0
 20
0.0
 30
0.0
  9
$PUCSXDIR
 10
1.0
 20
0.0
 30
0.0
  9
$PUCSYDIR
 10
0.0
 20
1.0
 30
0.0
  9
$PUCSORTHOREF
  2

  9
$PUCSORTHOVIEW
 70
     0
  9
$PUCSORGTOP
 10
0.0
 20
0.0
 30
0.0
  9
$PUCSORGBOTTOM
 10
0.0
 20
0.0
 30
0.0
  9
$PUCSORGLEFT
 10
0.0
 20
0.0
 30
0.0
  9
$PUCSORGRIGHT
 10
0.0
 20
0.0
 30
0.0
  9
$PUCSORGFRONT
 10
0.0
 20
0.0
 30
0.0
  9
$PUCSORGBACK
 10
0.0
 20
0.0
 30
0.0
  9
$USERI1
 70
     0
  9
$USERI2
 70
     0
  9
$USERI3
 70
     0
  9
$USERI4
 70
     0
  9
$USERI5
 70
     0
  9
$USERR1
 40
0.0
  9
$USERR2
 40
0.0
  9
$USERR3
 40
0.0
  9
$USERR4
 40
0.0
  9
$USERR5
 40
0.0
  9
$WORLDVIEW
 70
     1
  9
$SHADEDGE
 70
     3
  9
$SHADEDIF
 70
    70
  9
$TILEMODE
 70
     1
  9
$MAXACTVP
 70
    64
  9
$PINSBASE
 10
0.0
 20
0.0
 30
0.0
  9
$PLIMCHECK
 70
     0
  9
$PEXTMIN
 10
1.0000000000E+20
 20
1.0000000000E+20
 30
1.0000000000E+20
  9
$PEXTMAX
 10
-1.0000000000E+20
 20
-1.0000000000E+20
 30
-1.0000000000E+20
  9
$PLIMMIN
 10
0.0
 20
0.0
  9
$PLIMMAX
 10
420.0
 20
297.0
  9
$UNITMODE
 70
     0
  9
$VISRETAIN
 70
     1
  9
$PLINEGEN
 70
     0
  9
$PSLTSCALE
 70
     1
  9
$TREEDEPTH
 70
  3020
  9
$CMLSTYLE
  2
Standard
  9
$CMLJUST
 70
     0
  9
$CMLSCALE
 40
20.0
  9
$PROXYGRAPHICS
 70
     1
  9
$MEASUREMENT
 70
     1
  9
$CELWEIGHT
370
    -1
  9
$ENDCAPS
280
     0
  9
$JOINSTYLE
280
     0
  9
$LWDISPLAY
290
     1
  9
$INSUNITS
 70
     4
  9
$HYPERLINKBASE
  1

  9
$STYLESHEET
  1

  9
$XEDIT
290
     1
  9
$CEPSNTYPE
380
     0
  9
$PSTYLEMODE
290
     1
  9
$FINGERPRINTGUID
  2
{E076B6AA-B5FE-48CA-8AF6-E892ECEC8F17}
  9
$VERSIONGUID
  2
{FAEB1C32-E019-11D5-929B-00C0DF256EC4}
  9
$EXTNAMES
290
     1
  9
$PSVPSCALE
 40
0.0
  9
$OLESTARTUP
290
     0
  0
ENDSEC
  0
SECTION
  2
CLASSES
  0
CLASS
  1
ACDBDICTIONARYWDFLT
  2
AcDbDictionaryWithDefault
  3
ObjectDBX Classes
 90
        0
280
     0
281
     0
  0
CLASS
  1
VISUALSTYLE
  2
AcDbVisualStyle
  3
ObjectDBX Classes
 90
     4095
280
     0
281
     0
  0
CLASS
  1
MATERIAL
  2
AcDbMaterial
  3
ObjectDBX Classes
 90
     1153
280
     0
281
     0
  0
CLASS
  1
SCALE
  2
AcDbScale
  3
ObjectDBX Classes
 90
     1153
280
     0
281
     0
  0
CLASS
  1
TABLESTYLE
  2
AcDbTableStyle
  3
ObjectDBX Classes
 90
     4095
280
     0
281
     0
  0
CLASS
  1
MLEADERSTYLE
  2
AcDbMLeaderStyle
  3
ACDB_MLEADERSTYLE_CLASS
 90
     4095
280
     0
281
     0
  0
CLASS
  1
SUN
  2
AcDbSun
  3
SCENEOE
 90
     1153
280
     0
281
     0
  0
CLASS
  1
ACDBPLACEHOLDER
  2
AcDbPlaceHolder
  3
ObjectDBX Classes
 90
        0
280
     0
281
     0
  0
CLASS
  1
LAYOUT
  2
AcDbLayout
  3
ObjectDBX Classes
 90
        0
280
     0
281
     0
  0
ENDSEC
  0
SECTION
  2
TABLES
  0
TABLE
  2
VPORT
  5
8
330
0
100
AcDbSymbolTable
 70
     1
  0
VPORT
  5
29
330
8
100
AcDbSymbolTableRecord
100
AcDbViewportTableRecord
  2
*Active
 70
     0
 10
0.0
 20
0.0
 11
1.0
 21
1.0
 12
96.0
 22
96.0001694965
 13
0.0
 23
0.0
 14
10.0
 24
10.0
 15
10.0
 25
10.0
 16
0.0
 26
0.0
 36
1.0
 17
0.0
 27
0.0
 37
0.0
 40
195.8403457729
 41
0.9999982344
 42
50.0
 43
0.0
 44
0.0
 50
0.0
 51
0.0
 71
     0
 72
   100
 73
     1
 74
     3
 75
     0
 76
     0
 77
     0
 78
     0
281
     0
 65
     1
110
0.0
120
0.0
130
0.0
111
1.0
121
0.0
131
0.0
112
0.0
122
1.0
132
0.0
 79
     0
146
0.0
  0
ENDTAB
  0
TABLE
  2
LTYPE
  5
5
330
0
100
AcDbSymbolTable
 70
     6
  0
LTYPE
  5
14
330
5
100
AcDbSymbolTableRecord
100
AcDbLinetypeTableRecord
  2
ByBlock
 70
     0
  3

 72
    65
 73
     0
 40
0.0
  0
LTYPE
  5
15
330
5
100
AcDbSymbolTableRecord
100
AcDbLinetypeTableRecord
  2
ByLayer
 70
     0
  3

 72
    65
 73
     0
 40
0.0
  0
LTYPE
  5
16
330
5
100
AcDbSymbolTableRecord
100
AcDbLinetypeTableRecord
  2
Continuous
 70
     0
  3
Solid line
 72
    65
 73
     0
 40
0.0
  0
LTYPE
  5
6E
330
5
100
AcDbSymbolTableRecord
100
AcDbLinetypeTableRecord
  2
HIDDEN
 70
     0
  3
Hidden __ __ __ __ __ __ __ __ __ __ __ __ __ __
 72
    65
 73
     2
 40
1.905
 49
1.27
 74
     0
 49
-0.635
 74
     0
  0
LTYPE
  5
6F
330
5
100
AcDbSymbolTableRecord
100
AcDbLinetypeTableRecord
  2
PHANTOM
 70
     0
  3
Phantom ______  __  __  ______  __  __  ______
 72
    65
 73
     6
 40
12.7
 49
6.35
 74
     0
 49
-1.27
 74
     0
 49
1.27
 74
     0
 49
-1.27
 74
     0
 49
1.27
 74
     0
 49
-1.27
 74
     0
  0
LTYPE
  5
70
330
5
100
AcDbSymbolTableRecord
100
AcDbLinetypeTableRecord
  2
CENTER
 70
     0
  3
Center ____ _ ____ _ ____ _ ____ _ ____ _ ____
 72
    65
 73
     4
 40
10.16
 49
6.35
 74
     0
 49
-1.27
 74
     0
 49
1.27
 74
     0
 49
-1.27
 74
     0
  0
LTYPE
  5
71
330
5
100
AcDbSymbolTableRecord
100
AcDbLinetypeTableRecord
  2
CENTERX2
 70
     0
  3
Center (2x) ________  __  ________  __  _____
 72
    65
 73
     4
 40
20.32
 49
12.7
 74
     0
 49
-2.54
 74
     0
 49
2.54
 74
     0
 49
-2.54
 74
     0
  0
LTYPE
  5
72
330
5
100
AcDbSymbolTableRecord
100
AcDbLinetypeTableRecord
  2
DOT2
 70
     0
  3
Dot (.5x) ........................................
 72
    65
 73
     2
 40
0.635
 49
0.0
 74
     0
 49
-0.635
 74
     0
  0
ENDTAB
  0
TABLE
  2
LAYER
  5
2
330
0
100
AcDbSymbolTable
 70
     1
  0
LAYER
  5
10
330
2
100
AcDbSymbolTableRecord
100
AcDbLayerTableRecord
  2
0
 70
     0
 62
     7
  6
Continuous
370
    -3
390
F
  0
ENDTAB
  0
TABLE
  2
STYLE
  5
3
330
0
100
AcDbSymbolTable
 70
     1
  0
STYLE
  5
11
330
3
100
AcDbSymbolTableRecord
100
AcDbTextStyleTableRecord
  2
Standard
 70
     0
 40
0.0
 41
1.0
 50
0.0
 71
     0
 42
3.5
  3
txt
  4

  0
ENDTAB
  0
TABLE
  2
VIEW
  5
6
330
0
100
AcDbSymbolTable
 70
     0
  0
ENDTAB
  0
TABLE
  2
UCS
  5
7
330
0
100
AcDbSymbolTable
 70
     0
  0
ENDTAB
  0
TABLE
  2
APPID
  5
9
330
0
100
AcDbSymbolTable
 70
     1
  0
APPID
  5
12
330
9
100
AcDbSymbolTableRecord
100
AcDbRegAppTableRecord
  2
ACAD
 70
     0
  0
ENDTAB
  0
TABLE
  2
DIMSTYLE
  5
A
330
0
100
AcDbSymbolTable
 70
     1
100
AcDbDimStyleTable
  0
DIMSTYLE
105
27
330
A
100
AcDbSymbolTableRecord
100
AcDbDimStyleTableRecord
  2
ISO-25
 70
     0
 41
2.5
 42
0.625
 43
3.75
 44
1.25
 73
     0
 74
     0
 77
     1
 78
     8
140
2.5
141
2.5
143
0.0393700787
147
0.625
171
     3
172
     1
178
     0
271
     2
272
     2
274
     3
278
    44
283
     0
284
     8
340
11
  0
ENDTAB
  0
TABLE
  2
BLOCK_RECORD
  5
1
330
0
100
AcDbSymbolTable
 70
     1
  0
BLOCK_RECORD
  5
1F
330
1
100
AcDbSymbolTableRecord
100
AcDbBlockTableRecord
  2
*Model_Space
340
22
  0
BLOCK_RECORD
  5
1B
330
1
100
AcDbSymbolTableRecord
100
AcDbBlockTableRecord
  2
*Paper_Space
340
1E
  0
BLOCK_RECORD
  5
23
330
1
100
AcDbSymbolTableRecord
100
AcDbBlockTableRecord
  2
*Paper_Space0
340
26
  0
ENDTAB
  0
ENDSEC
  0
SECTION
  2
BLOCKS
  0
BLOCK
  5
20
330
1F
100
AcDbEntity
  8
0
100
AcDbBlockBegin
  2
*Model_Space
 70
     0
 10
0.0
 20
0.0
 30
0.0
  3
*Model_Space
  1

  0
ENDBLK
  5
21
330
1F
100
AcDbEntity
  8
0
100
AcDbBlockEnd
  0
BLOCK
  5
1C
330
1B
100
AcDbEntity
 67
     1
  8
0
100
AcDbBlockBegin
  2
*Paper_Space
 70
     0
 10
0.0
 20
0.0
 30
0.0
  3
*Paper_Space
  1

  0
ENDBLK
  5
1D
330
1B
100
AcDbEntity
 67
     1
  8
0
100
AcDbBlockEnd
  0
BLOCK
  5
24
330
23
100
AcDbEntity
  8
0
100
AcDbBlockBegin
  2
*Paper_Space0
 70
     0
 10
0.0
 20
0.0
 30
0.0
  3
*Paper_Space0
  1

  0
ENDBLK
  5
25
330
23
100
AcDbEntity
  8
0
100
AcDbBlockEnd
  0
ENDSEC
  0
SECTION
  2
ENTITIES
  0
CIRCLE
  5
CB
330
1F
100
AcDbEntity
  8
0
  6
Continuous
 62
     7
370
    15
100
AcDbCircle
 10
186.000000019
 20
6.0003417153
 30
0.0
 40
1.999999981005573
  0
CIRCLE
  5
CC
330
1F
100
AcDbEntity
  8
0
  6
Continuous
 62
     7
370
    15
100
AcDbCircle
 10
186.000000019
 20
37.0003412626
 30
0.0
 40
1.999999981005658
  0
CIRCLE
  5
CD
330
1F
100
AcDbEntity
  8
0
  6
Continuous
 62
     7
370
    15
100
AcDbCircle
 10
6.000000019
 20
6.0003417153
 30
0.0
 40
1.999999981005633
  0
CIRCLE
  5
CE
330
1F
100
AcDbEntity
  8
0
  6
Continuous
 62
     7
370
    15
100
AcDbCircle
 10
6.000000019
 20
37.0003412626
 30
0.0
 40
1.999999981005638
  0
CIRCLE
  5
CF
330
1F
100
AcDbEntity
  8
0
  6
Continuous
 62
     7
370
    15
100
AcDbCircle
 10
3.0000000153
 20
64.0003408673
 30
0.0
 40
1.499999984710211
  0
CIRCLE
  5
D0
330
1F
100
AcDbEntity
  8
0
  6
Continuous
 62
     7
370
    15
100
AcDbCircle
 10
3.0000000153
 20
50.0003410718
 30
0.0
 40
1.499999984710212
  0
CIRCLE
  5
D1
330
1F
100
AcDbEntity
  8
0
  6
Continuous
 62
     7
370
    15
100
AcDbCircle
 10
189.0000000153
 20
50.0003410718
 30
0.0
 40
1.4999999847102
  0
CIRCLE
  5
D2
330
1F
100
AcDbEntity
  8
0
  6
Continuous
 62
     7
370
    15
100
AcDbCircle
 10
189.0000000153
 20
64.0003408673
 30
0.0
 40
1.4999999847102
  0
CIRCLE
  5
D3
330
1F
100
AcDbEntity
  8
0
  6
Continuous
 62
     7
370
    15
100
AcDbCircle
 10
189.0000000153
 20
175.0003392464
 30
0.0
 40
1.499999984710257
  0
CIRCLE
  5
D4
330
1F
100
AcDbEntity
  8
0
  6
Continuous
 62
     7
370
    15
100
AcDbCircle
 10
189.0000000153
 20
189.0003390419
 30
0.0
 40
1.4999999847102
  0
CIRCLE
  5
D5
330
1F
100
AcDbEntity
  8
0
  6
Continuous
 62
     7
370
    15
100
AcDbCircle
 10
3.0000000153
 20
175.0003392464
 30
0.0
 40
1.499999984710205
  0
CIRCLE
  5
D6
330
1F
100
AcDbEntity
  8
0
  6
Continuous
 62
     7
370
    15
100
AcDbCircle
 10
3.0000000153
 20
189.0003390419
 30
0.0
 40
1.499999984710205
  0
CIRCLE
  5
137
330
1F
100
AcDbEntity
  8
0
  6
Continuous
 62
     7
370
    15
100
AcDbCircle
 10
30.0000000177
 20
177.000339217
 30
0.0
 40
1.599999982269715
  0
CIRCLE
  5
138
330
1F
100
AcDbEntity
  8
0
  6
Continuous
 62
     7
370
    15
100
AcDbCircle
 10
162.0000000177
 20
177.000339217
 30
0.0
 40
1.599999982269679
  0
CIRCLE
  5
139
330
1F
100
AcDbEntity
  8
0
  6
Continuous
 62
     7
370
    15
100
AcDbCircle
 10
162.0000000177
 20
15.0003415827
 30
0.0
 40
1.599999982269708
  0
CIRCLE
  5
13A
330
1F
100
AcDbEntity
  8
0
  6
Continuous
 62
     7
370
    15
100
AcDbCircle
 10
30.0000000177
 20
15.0003415827
 30
0.0
 40
1.599999982269715
  0
CIRCLE
  5
13B
330
1F
100
AcDbEntity
  8
0
  6
Continuous
 62
     7
370
    15
100
AcDbCircle
 10
116.0000000094
 20
149.0003396247
 30
0.0
 40
0.9999999906351462
  0
CIRCLE
  5
13C
330
1F
100
AcDbEntity
  8
0
  6
Continuous
 62
     7
370
    15
100
AcDbCircle
 10
177.0000000094
 20
149.0003396247
 30
0.0
 40
0.9999999906351604
  0
CIRCLE
  5
13D
330
1F
100
AcDbEntity
  8
0
  6
Continuous
 62
     7
370
    15
100
AcDbCircle
 10
177.0000000094
 20
61.5003409025
 30
0.0
 40
0.999999990635132
  0
CIRCLE
  5
13E
330
1F
100
AcDbEntity
  8
0
  6
Continuous
 62
     7
370
    15
100
AcDbCircle
 10
177.0000000094
 20
52.0003410412
 30
0.0
 40
0.999999990635132
  0
CIRCLE
  5
13F
330
1F
100
AcDbEntity
  8
0
  6
Continuous
 62
     7
370
    15
100
AcDbCircle
 10
116.0000000094
 20
52.0003410412
 30
0.0
 40
0.9999999906351036
  0
CIRCLE
  5
140
330
1F
100
AcDbEntity
  8
0
  6
Continuous
 62
     7
370
    15
100
AcDbCircle
 10
116.0000000094
 20
61.5003409025
 30
0.0
 40
0.9999999906350894
  0
CIRCLE
  5
141
330
1F
100
AcDbEntity
  8
0
  6
Continuous
 62
     7
370
    15
100
AcDbCircle
 10
33.5000000094
 20
144.0003396977
 30
0.0
 40
0.9999999906351107
  0
CIRCLE
  5
142
330
1F
100
AcDbEntity
  8
0
  6
Continuous
 62
     7
370
    15
100
AcDbCircle
 10
82.5000000094
 20
144.0003396977
 30
0.0
 40
0.9999999906351036
  0
CIRCLE
  5
143
330
1F
100
AcDbEntity
  8
0
  6
Continuous
 62
     7
370
    15
100
AcDbCircle
 10
82.5000000094
 20
86.0003405447
 30
0.0
 40
0.9999999906351178
  0
CIRCLE
  5
144
330
1F
100
AcDbEntity
  8
0
  6
Continuous
 62
     7
370
    15
100
AcDbCircle
 10
33.5000000094
 20
86.0003405447
 30
0.0
 40
0.9999999906351036
  0
CIRCLE
  5
145
330
1F
100
AcDbEntity
  8
0
  6
Continuous
 62
     7
370
    15
100
AcDbCircle
 10
158.4999999906
 20
86.0003405373
 30
0.0
 40
0.9999999906351036
  0
CIRCLE
  5
146
330
1F
100
AcDbEntity
  8
0
  6
Continuous
 62
     7
370
    15
100
AcDbCircle
 10
109.4999999906
 20
86.0003405373
 30
0.0
 40
0.9999999906351178
  0
CIRCLE
  5
147
330
1F
100
AcDbEntity
  8
0
  6
Continuous
 62
     7
370
    15
100
AcDbCircle
 10
109.4999999906
 20
144.0003396903
 30
0.0
 40
0.999999990635061
  0
CIRCLE
  5
148
330
1F
100
AcDbEntity
  8
0
  6
Continuous
 62
     7
370
    15
100
AcDbCircle
 10
158.4999999906
 20
144.0003396903
 30
0.0
 40
0.999999990635132
  0
CIRCLE
  5
149
330
1F
100
AcDbEntity
  8
0
  6
Continuous
 62
     7
370
    15
100
AcDbCircle
 10
75.9999999906
 20
61.5003408951
 30
0.0
 40
0.999999990635132
  0
CIRCLE
  5
14A
330
1F
100
AcDbEntity
  8
0
  6
Continuous
 62
     7
370
    15
100
AcDbCircle
 10
75.9999999906
 20
52.0003410338
 30
0.0
 40
0.999999990635132
  0
CIRCLE
  5
14B
330
1F
100
AcDbEntity
  8
0
  6
Continuous
 62
     7
370
    15
100
AcDbCircle
 10
14.9999999906
 20
52.0003410338
 30
0.0
 40
0.9999999906351107
  0
CIRCLE
  5
14C
330
1F
100
AcDbEntity
  8
0
  6
Continuous
 62
     7
370
    15
100
AcDbCircle
 10
14.9999999906
 20
61.5003408951
 30
0.0
 40
0.9999999906351089
  0
CIRCLE
  5
14D
330
1F
100
AcDbEntity
  8
0
  6
Continuous
 62
     7
370
    15
100
AcDbCircle
 10
14.9999999906
 20
149.0003396173
 30
0.0
 40
0.9999999906351036
  0
CIRCLE
  5
14E
330
1F
100
AcDbEntity
  8
0
  6
Continuous
 62
     7
370
    15
100
AcDbCircle
 10
75.9999999906
 20
149.0003396173
 30
0.0
 40
0.9999999906351036
  0
CIRCLE
  5
14F
330
1F
100
AcDbEntity
  8
0
  6
Continuous
 62
     7
370
    15
100
AcDbCircle
 10
170.0000000094
 20
61.5003409025
 30
0.0
 40
0.9999999906351036
  0
CIRCLE
  5
150
330
1F
100
AcDbEntity
  8
0
  6
Continuous
 62
     7
370
    15
100
AcDbCircle
 10
170.0000000094
 20
149.0003396247
 30
0.0
 40
0.9999999906350467
  0
CIRCLE
  5
151
330
1F
100
AcDbEntity
  8
0
  6
Continuous
 62
     7
370
    15
100
AcDbCircle
 10
21.9999999906
 20
61.5003408951
 30
0.0
 40
0.9999999906351071
  0
CIRCLE
  5
152
330
1F
100
AcDbEntity
  8
0
  6
Continuous
 62
     7
370
    15
100
AcDbCircle
 10
21.9999999906
 20
149.0003396173
 30
0.0
 40
0.9999999906351071
  0
LWPOLYLINE
  5
1B3
330
1F
100
AcDbEntity
  8
0
  6
Continuous
 62
     7
370
    15
100
AcDbPolyline
 90
       11
 70
   128
 43
0.0
 10
160.4
 20
14.9999997809
 10
160.4964918067
 20
15.5472320023
 10
160.774328891
 20
16.0284599414
 10
161.2
 20
16.3856404068
 10
161.7221629157
 20
16.5756921628
 10
162.2778370843
 20
16.5756921628
 10
162.8
 20
16.3856404068
 10
163.225671109
 20
16.0284599414
 10
163.5035081933
 20
15.5472320023
 10
163.6
 20
14.9999997809
 10
163.6
 20
14.9999997809
  0
LINE
  5
23C
330
1F
100
AcDbEntity
  8
0
  6
Continuous
 62
     7
370
    15
100
AcDbLine
 10
17.5
 20
8.5003416727
 30
0.0
 11
22.5
 21
8.5003416727
 31
0.0
  0
LINE
  5
23D
330
1F
100
AcDbEntity
  8
0
  6
Continuous
 62
     7
370
    15
100
AcDbLine
 10
22.5
 20
11.5003416289
 30
0.0
 11
17.5
 21
11.5003416289
 31
0.0
  0
LINE
  5
23E
330
1F
100
AcDbEntity
  8
0
  6
Continuous
 62
     7
370
    15
100
AcDbLine
 10
167.5
 20
8.5003416727
 30
0.0
 11
172.5
 21
8.5003416727
 31
0.0
  0
LINE
  5
23F
330
1F
100
AcDbEntity
  8
0
  6
Continuous
 62
     7
370
    15
100
AcDbLine
 10
172.5
 20
11.5003416289
 30
0.0
 11
167.5
 21
11.5003416289
 31
0.0
  0
LINE
  5
240
330
1F
100
AcDbEntity
  8
0
  6
Continuous
 62
     7
370
    15
100
AcDbLine
 10
107.5
 20
8.5003416727
 30
0.0
 11
112.5
 21
8.5003416727
 31
0.0
  0
LINE
  5
241
330
1F
100
AcDbEntity
  8
0
  6
Continuous
 62
     7
370
    15
100
AcDbLine
 10
112.5
 20
11.5003416289
 30
0.0
 11
107.5
 21
11.5003416289
 31
0.0
  0
LINE
  5
242
330
1F
100
AcDbEntity
  8
0
  6
Continuous
 62
     7
370
    15
100
AcDbLine
 10
47.5
 20
8.5003416727
 30
0.0
 11
52.5
 21
8.5003416727
 31
0.0
  0
LINE
  5
243
330
1F
100
AcDbEntity
  8
0
  6
Continuous
 62
     7
370
    15
100
AcDbLine
 10
52.5
 20
11.5003416289
 30
0.0
 11
47.5
 21
11.5003416289
 31
0.0
  0
LINE
  5
244
330
1F
100
AcDbEntity
  8
0
  6
Continuous
 62
     7
370
    15
100
AcDbLine
 10
137.5
 20
18.5003415267
 30
0.0
 11
142.5
 21
18.5003415267
 31
0.0
  0
LINE
  5
245
330
1F
100
AcDbEntity
  8
0
  6
Continuous
 62
     7
370
    15
100
AcDbLine
 10
142.5
 20
21.5003414829
 30
0.0
 11
137.5
 21
21.5003414829
 31
0.0
  0
LINE
  5
246
330
1F
100
AcDbEntity
  8
0
  6
Continuous
 62
     7
370
    15
100
AcDbLine
 10
77.5
 20
18.5003415267
 30
0.0
 11
82.5
 21
18.5003415267
 31
0.0
  0
LINE
  5
247
330
1F
100
AcDbEntity
  8
0
  6
Continuous
 62
     7
370
    15
100
AcDbLine
 10
82.5
 20
21.5003414829
 30
0.0
 11
77.5
 21
21.5003414829
 31
0.0
  0
LINE
  5
248
330
1F
100
AcDbEntity
  8
0
  6
Continuous
 62
     7
370
    15
100
AcDbLine
 10
167.5
 20
28.5003413807
 30
0.0
 11
172.5
 21
28.5003413807
 31
0.0
  0
LINE
  5
249
330
1F
100
AcDbEntity
  8
0
  6
Continuous
 62
     7
370
    15
100
AcDbLine
 10
172.5
 20
31.5003413369
 30
0.0
 11
167.5
 21
31.5003413369
 31
0.0
  0
LINE
  5
24A
330
1F
100
AcDbEntity
  8
0
  6
Continuous
 62
     7
370
    15
100
AcDbLine
 10
107.5
 20
28.5003413807
 30
0.0
 11
112.5
 21
28.5003413807
 31
0.0
  0
LINE
  5
24B
330
1F
100
AcDbEntity
  8
0
  6
Continuous
 62
     7
370
    15
100
AcDbLine
 10
112.5
 20
31.5003413369
 30
0.0
 11
107.5
 21
31.5003413369
 31
0.0
  0
LINE
  5
24C
330
1F
100
AcDbEntity
  8
0
  6
Continuous
 62
     7
370
    15
100
AcDbLine
 10
47.5
 20
28.5003413807
 30
0.0
 11
52.5
 21
28.5003413807
 31
0.0
  0
LINE
  5
24D
330
1F
100
AcDbEntity
  8
0
  6
Continuous
 62
     7
370
    15
100
AcDbLine
 10
52.5
 20
31.5003413369
 30
0.0
 11
47.5
 21
31.5003413369
 31
0.0
  0
LINE
  5
24E
330
1F
100
AcDbEntity
  8
0
  6
Continuous
 62
     7
370
    15
100
AcDbLine
 10
181.0
 20
188.0003390515
 30
0.0
 11
181.0
 21
176.0003392267
 31
0.0
  0
LINE
  5
24F
330
1F
100
AcDbEntity
  8
0
  6
Continuous
 62
     7
370
    15
100
AcDbLine
 10
185.0
 20
176.0003392267
 30
0.0
 11
185.0
 21
188.0003390515
 31
0.0
  0
LINE
  5
250
330
1F
100
AcDbEntity
  8
0
  6
Continuous
 62
     7
370
    15
100
AcDbLine
 10
169.0
 20
188.0003390515
 30
0.0
 11
169.0
 21
176.0003392267
 31
0.0
  0
LINE
  5
251
330
1F
100
AcDbEntity
  8
0
  6
Continuous
 62
     7
370
    15
100
AcDbLine
 10
173.0
 20
176.0003392267
 30
0.0
 11
173.0
 21
188.0003390515
 31
0.0
  0
LINE
  5
252
330
1F
100
AcDbEntity
  8
0
  6
Continuous
 62
     7
370
    15
100
AcDbLine
 10
145.0
 20
188.0003390515
 30
0.0
 11
145.0
 21
176.0003392267
 31
0.0
  0
LINE
  5
253
330
1F
100
AcDbEntity
  8
0
  6
Continuous
 62
     7
370
    15
100
AcDbLine
 10
149.0
 20
176.0003392267
 30
0.0
 11
149.0
 21
188.0003390515
 31
0.0
  0
LINE
  5
254
330
1F
100
AcDbEntity
  8
0
  6
Continuous
 62
     7
370
    15
100
AcDbLine
 10
133.0
 20
188.0003390515
 30
0.0
 11
133.0
 21
176.0003392267
 31
0.0
  0
LINE
  5
255
330
1F
100
AcDbEntity
  8
0
  6
Continuous
 62
     7
370
    15
100
AcDbLine
 10
137.0
 20
176.0003392267
 30
0.0
 11
137.0
 21
188.0003390515
 31
0.0
  0
LINE
  5
256
330
1F
100
AcDbEntity
  8
0
  6
Continuous
 62
     7
370
    15
100
AcDbLine
 10
121.0
 20
188.0003390515
 30
0.0
 11
121.0
 21
176.0003392267
 31
0.0
  0
LINE
  5
257
330
1F
100
AcDbEntity
  8
0
  6
Continuous
 62
     7
370
    15
100
AcDbLine
 10
125.0
 20
176.0003392267
 30
0.0
 11
125.0
 21
188.0003390515
 31
0.0
  0
LINE
  5
258
330
1F
100
AcDbEntity
  8
0
  6
Continuous
 62
     7
370
    15
100
AcDbLine
 10
109.0
 20
188.0003390515
 30
0.0
 11
109.0
 21
176.0003392267
 31
0.0
  0
LINE
  5
259
330
1F
100
AcDbEntity
  8
0
  6
Continuous
 62
     7
370
    15
100
AcDbLine
 10
113.0
 20
176.0003392267
 30
0.0
 11
113.0
 21
188.0003390515
 31
0.0
  0
LINE
  5
25A
330
1F
100
AcDbEntity
  8
0
  6
Continuous
 62
     7
370
    15
100
AcDbLine
 10
97.0
 20
188.0003390515
 30
0.0
 11
97.0
 21
176.0003392267
 31
0.0
  0
LINE
  5
25B
330
1F
100
AcDbEntity
  8
0
  6
Continuous
 62
     7
370
    15
100
AcDbLine
 10
101.0
 20
176.0003392267
 30
0.0
 11
101.0
 21
188.0003390515
 31
0.0
  0
LINE
  5
25C
330
1F
100
AcDbEntity
  8
0
  6
Continuous
 62
     7
370
    15
100
AcDbLine
 10
85.0
 20
188.0003390515
 30
0.0
 11
85.0
 21
176.0003392267
 31
0.0
  0
LINE
  5
25D
330
1F
100
AcDbEntity
  8
0
  6
Continuous
 62
     7
370
    15
100
AcDbLine
 10
89.0
 20
176.0003392267
 30
0.0
 11
89.0
 21
188.0003390515
 31
0.0
  0
LINE
  5
25E
330
1F
100
AcDbEntity
  8
0
  6
Continuous
 62
     7
370
    15
100
AcDbLine
 10
73.0
 20
188.0003390515
 30
0.0
 11
73.0
 21
176.0003392267
 31
0.0
  0
LINE
  5
25F
330
1F
100
AcDbEntity
  8
0
  6
Continuous
 62
     7
370
    15
100
AcDbLine
 10
77.0
 20
176.0003392267
 30
0.0
 11
77.0
 21
188.0003390515
 31
0.0
  0
LINE
  5
260
330
1F
100
AcDbEntity
  8
0
  6
Continuous
 62
     7
370
    15
100
AcDbLine
 10
61.0
 20
188.0003390515
 30
0.0
 11
61.0
 21
176.0003392267
 31
0.0
  0
LINE
  5
261
330
1F
100
AcDbEntity
  8
0
  6
Continuous
 62
     7
370
    15
100
AcDbLine
 10
65.0
 20
176.0003392267
 30
0.0
 11
65.0
 21
188.0003390515
 31
0.0
  0
LINE
  5
262
330
1F
100
AcDbEntity
  8
0
  6
Continuous
 62
     7
370
    15
100
AcDbLine
 10
49.0
 20
188.0003390515
 30
0.0
 11
49.0
 21
176.0003392267
 31
0.0
  0
LINE
  5
263
330
1F
100
AcDbEntity
  8
0
  6
Continuous
 62
     7
370
    15
100
AcDbLine
 10
53.0
 20
176.0003392267
 30
0.0
 11
53.0
 21
188.0003390515
 31
0.0
  0
LINE
  5
264
330
1F
100
AcDbEntity
  8
0
  6
Continuous
 62
     7
370
    15
100
AcDbLine
 10
37.0
 20
188.0003390515
 30
0.0
 11
37.0
 21
176.0003392267
 31
0.0
  0
LINE
  5
265
330
1F
100
AcDbEntity
  8
0
  6
Continuous
 62
     7
370
    15
100
AcDbLine
 10
41.0
 20
176.0003392267
 30
0.0
 11
41.0
 21
188.0003390515
 31
0.0
  0
LINE
  5
266
330
1F
100
AcDbEntity
  8
0
  6
Continuous
 62
     7
370
    15
100
AcDbLine
 10
13.0
 20
188.0003390515
 30
0.0
 11
13.0
 21
176.0003392267
 31
0.0
  0
LINE
  5
267
330
1F
100
AcDbEntity
  8
0
  6
Continuous
 62
     7
370
    15
100
AcDbLine
 10
17.0
 20
176.0003392267
 30
0.0
 11
17.0
 21
188.0003390515
 31
0.0
  0
LINE
  5
268
330
1F
100
AcDbEntity
  8
0
  6
Continuous
 62
     7
370
    15
100
AcDbLine
 10
1.0
 20
0.0003417969
 30
0.0
 11
191.0
 21
0.0003417969
 31
0.0
  0
LINE
  5
269
330
1F
100
AcDbEntity
  8
0
  6
Continuous
 62
     7
370
    15
100
AcDbLine
 10
0.0
 20
191.0003390077
 30
0.0
 11
0.0
 21
0.9999999854
 31
0.0
  0
LINE
  5
26A
330
1F
100
AcDbEntity
  8
0
  6
Continuous
 62
     7
370
    15
100
AcDbLine
 10
191.0
 20
192.0003389931
 30
0.0
 11
1.0
 21
192.0003389931
 31
0.0
  0
LINE
  5
26B
330
1F
100
AcDbEntity
  8
0
  6
Continuous
 62
     7
370
    15
100
AcDbLine
 10
192.0
 20
0.9999999854
 30
0.0
 11
192.0
 21
191.0003390077
 31
0.0
  0
LINE
  5
26C
330
1F
100
AcDbEntity
  8
0
  6
Continuous
 62
     7
370
    15
100
AcDbLine
 10
7.0
 20
188.0003390515
 30
0.0
 11
7.0
 21
176.0003392267
 31
0.0
  0
LINE
  5
26D
330
1F
100
AcDbEntity
  8
0
  6
Continuous
 62
     7
370
    15
100
AcDbLine
 10
11.0
 20
176.0003392267
 30
0.0
 11
11.0
 21
188.0003390515
 31
0.0
  0
LINE
  5
26E
330
1F
100
AcDbEntity
  8
0
  6
Continuous
 62
     7
370
    15
100
AcDbLine
 10
19.0
 20
188.0003390515
 30
0.0
 11
19.0
 21
176.0003392267
 31
0.0
  0
LINE
  5
26F
330
1F
100
AcDbEntity
  8
0
  6
Continuous
 62
     7
370
    15
100
AcDbLine
 10
23.0
 20
176.0003392267
 30
0.0
 11
23.0
 21
188.0003390515
 31
0.0
  0
LINE
  5
270
330
1F
100
AcDbEntity
  8
0
  6
Continuous
 62
     7
370
    15
100
AcDbLine
 10
43.0
 20
188.0003390515
 30
0.0
 11
43.0
 21
176.0003392267
 31
0.0
  0
LINE
  5
271
330
1F
100
AcDbEntity
  8
0
  6
Continuous
 62
     7
370
    15
100
AcDbLine
 10
47.0
 20
176.0003392267
 30
0.0
 11
47.0
 21
188.0003390515
 31
0.0
  0
LINE
  5
272
330
1F
100
AcDbEntity
  8
0
  6
Continuous
 62
     7
370
    15
100
AcDbLine
 10
55.0
 20
188.0003390515
 30
0.0
 11
55.0
 21
176.0003392267
 31
0.0
  0
LINE
  5
273
330
1F
100
AcDbEntity
  8
0
  6
Continuous
 62
     7
370
    15
100
AcDbLine
 10
59.0
 20
176.0003392267
 30
0.0
 11
59.0
 21
188.0003390515
 31
0.0
  0
LINE
  5
274
330
1F
100
AcDbEntity
  8
0
  6
Continuous
 62
     7
370
    15
100
AcDbLine
 10
67.0
 20
188.0003390515
 30
0.0
 11
67.0
 21
176.0003392267
 31
0.0
  0
LINE
  5
275
330
1F
100
AcDbEntity
  8
0
  6
Continuous
 62
     7
370
    15
100
AcDbLine
 10
71.0
 20
176.0003392267
 30
0.0
 11
71.0
 21
188.0003390515
 31
0.0
  0
LINE
  5
276
330
1F
100
AcDbEntity
  8
0
  6
Continuous
 62
     7
370
    15
100
AcDbLine
 10
79.0
 20
188.0003390515
 30
0.0
 11
79.0
 21
176.0003392267
 31
0.0
  0
LINE
  5
277
330
1F
100
AcDbEntity
  8
0
  6
Continuous
 62
     7
370
    15
100
AcDbLine
 10
83.0
 20
176.0003392267
 30
0.0
 11
83.0
 21
188.0003390515
 31
0.0
  0
LINE
  5
278
330
1F
100
AcDbEntity
  8
0
  6
Continuous
 62
     7
370
    15
100
AcDbLine
 10
91.0
 20
188.0003390515
 30
0.0
 11
91.0
 21
176.0003392267
 31
0.0
  0
LINE
  5
279
330
1F
100
AcDbEntity
  8
0
  6
Continuous
 62
     7
370
    15
100
AcDbLine
 10
95.0
 20
176.0003392267
 30
0.0
 11
95.0
 21
188.0003390515
 31
0.0
  0
LINE
  5
27A
330
1F
100
AcDbEntity
  8
0
  6
Continuous
 62
     7
370
    15
100
AcDbLine
 10
103.0
 20
188.0003390515
 30
0.0
 11
103.0
 21
176.0003392267
 31
0.0
  0
LINE
  5
27B
330
1F
100
AcDbEntity
  8
0
  6
Continuous
 62
     7
370
    15
100
AcDbLine
 10
107.0
 20
176.0003392267
 30
0.0
 11
107.0
 21
188.0003390515
 31
0.0
  0
LINE
  5
27C
330
1F
100
AcDbEntity
  8
0
  6
Continuous
 62
     7
370
    15
100
AcDbLine
 10
115.0
 20
188.0003390515
 30
0.0
 11
115.0
 21
176.0003392267
 31
0.0
  0
LINE
  5
27D
330
1F
100
AcDbEntity
  8
0
  6
Continuous
 62
     7
370
    15
100
AcDbLine
 10
119.0
 20
176.0003392267
 30
0.0
 11
119.0
 21
188.0003390515
 31
0.0
  0
LINE
  5
27E
330
1F
100
AcDbEntity
  8
0
  6
Continuous
 62
     7
370
    15
100
AcDbLine
 10
127.0
 20
188.0003390515
 30
0.0
 11
127.0
 21
176.0003392267
 31
0.0
  0
LINE
  5
27F
330
1F
100
AcDbEntity
  8
0
  6
Continuous
 62
     7
370
    15
100
AcDbLine
 10
131.0
 20
176.0003392267
 30
0.0
 11
131.0
 21
188.0003390515
 31
0.0
  0
LINE
  5
280
330
1F
100
AcDbEntity
  8
0
  6
Continuous
 62
     7
370
    15
100
AcDbLine
 10
139.0
 20
188.0003390515
 30
0.0
 11
139.0
 21
176.0003392267
 31
0.0
  0
LINE
  5
281
330
1F
100
AcDbEntity
  8
0
  6
Continuous
 62
     7
370
    15
100
AcDbLine
 10
143.0
 20
176.0003392267
 30
0.0
 11
143.0
 21
188.0003390515
 31
0.0
  0
LINE
  5
282
330
1F
100
AcDbEntity
  8
0
  6
Continuous
 62
     7
370
    15
100
AcDbLine
 10
151.0
 20
188.0003390515
 30
0.0
 11
151.0
 21
176.0003392267
 31
0.0
  0
LINE
  5
283
330
1F
100
AcDbEntity
  8
0
  6
Continuous
 62
     7
370
    15
100
AcDbLine
 10
155.0
 20
176.0003392267
 30
0.0
 11
155.0
 21
188.0003390515
 31
0.0
  0
LINE
  5
284
330
1F
100
AcDbEntity
  8
0
  6
Continuous
 62
     7
370
    15
100
AcDbLine
 10
175.0
 20
188.0003390515
 30
0.0
 11
175.0
 21
176.0003392267
 31
0.0
  0
LINE
  5
285
330
1F
100
AcDbEntity
  8
0
  6
Continuous
 62
     7
370
    15
100
AcDbLine
 10
179.0
 20
176.0003392267
 30
0.0
 11
179.0
 21
188.0003390515
 31
0.0
  0
LINE
  5
286
330
1F
100
AcDbEntity
  8
0
  6
Continuous
 62
     7
370
    15
100
AcDbLine
 10
17.5
 20
28.5003413807
 30
0.0
 11
22.5
 21
28.5003413807
 31
0.0
  0
LINE
  5
287
330
1F
100
AcDbEntity
  8
0
  6
Continuous
 62
     7
370
    15
100
AcDbLine
 10
22.5
 20
31.5003413369
 30
0.0
 11
17.5
 21
31.5003413369
 31
0.0
  0
LINE
  5
288
330
1F
100
AcDbEntity
  8
0
  6
Continuous
 62
     7
370
    15
100
AcDbLine
 10
77.5
 20
28.5003413807
 30
0.0
 11
82.5
 21
28.5003413807
 31
0.0
  0
LINE
  5
289
330
1F
100
AcDbEntity
  8
0
  6
Continuous
 62
     7
370
    15
100
AcDbLine
 10
82.5
 20
31.5003413369
 30
0.0
 11
77.5
 21
31.5003413369
 31
0.0
  0
LINE
  5
28A
330
1F
100
AcDbEntity
  8
0
  6
Continuous
 62
     7
370
    15
100
AcDbLine
 10
137.5
 20
28.5003413807
 30
0.0
 11
142.5
 21
28.5003413807
 31
0.0
  0
LINE
  5
28B
330
1F
100
AcDbEntity
  8
0
  6
Continuous
 62
     7
370
    15
100
AcDbLine
 10
142.5
 20
31.5003413369
 30
0.0
 11
137.5
 21
31.5003413369
 31
0.0
  0
LINE
  5
28C
330
1F
100
AcDbEntity
  8
0
  6
Continuous
 62
     7
370
    15
100
AcDbLine
 10
47.5
 20
18.5003415267
 30
0.0
 11
52.5
 21
18.5003415267
 31
0.0
  0
LINE
  5
28D
330
1F
100
AcDbEntity
  8
0
  6
Continuous
 62
     7
370
    15
100
AcDbLine
 10
52.5
 20
21.5003414829
 30
0.0
 11
47.5
 21
21.5003414829
 31
0.0
  0
LINE
  5
28E
330
1F
100
AcDbEntity
  8
0
  6
Continuous
 62
     7
370
    15
100
AcDbLine
 10
107.5
 20
18.5003415267
 30
0.0
 11
112.5
 21
18.5003415267
 31
0.0
  0
LINE
  5
28F
330
1F
100
AcDbEntity
  8
0
  6
Continuous
 62
     7
370
    15
100
AcDbLine
 10
112.5
 20
21.5003414829
 30
0.0
 11
107.5
 21
21.5003414829
 31
0.0
  0
LINE
  5
290
330
1F
100
AcDbEntity
  8
0
  6
Continuous
 62
     7
370
    15
100
AcDbLine
 10
167.5
 20
18.5003415267
 30
0.0
 11
172.5
 21
18.5003415267
 31
0.0
  0
LINE
  5
291
330
1F
100
AcDbEntity
  8
0
  6
Continuous
 62
     7
370
    15
100
AcDbLine
 10
172.5
 20
21.5003414829
 30
0.0
 11
167.5
 21
21.5003414829
 31
0.0
  0
LINE
  5
292
330
1F
100
AcDbEntity
  8
0
  6
Continuous
 62
     7
370
    15
100
AcDbLine
 10
77.5
 20
8.5003416727
 30
0.0
 11
82.5
 21
8.5003416727
 31
0.0
  0
LINE
  5
293
330
1F
100
AcDbEntity
  8
0
  6
Continuous
 62
     7
370
    15
100
AcDbLine
 10
82.5
 20
11.5003416289
 30
0.0
 11
77.5
 21
11.5003416289
 31
0.0
  0
LINE
  5
294
330
1F
100
AcDbEntity
  8
0
  6
Continuous
 62
     7
370
    15
100
AcDbLine
 10
137.5
 20
8.5003416727
 30
0.0
 11
142.5
 21
8.5003416727
 31
0.0
  0
LINE
  5
295
330
1F
100
AcDbEntity
  8
0
  6
Continuous
 62
     7
370
    15
100
AcDbLine
 10
142.5
 20
11.5003416289
 30
0.0
 11
137.5
 21
11.5003416289
 31
0.0
  0
LINE
  5
296
330
1F
100
AcDbEntity
  8
0
  6
Continuous
 62
     7
370
    15
100
AcDbLine
 10
17.5
 20
18.5003415267
 30
0.0
 11
22.5
 21
18.5003415267
 31
0.0
  0
LINE
  5
297
330
1F
100
AcDbEntity
  8
0
  6
Continuous
 62
     7
370
    15
100
AcDbLine
 10
22.5
 20
21.5003414829
 30
0.0
 11
17.5
 21
21.5003414829
 31
0.0
  0
LINE
  5
298
330
1F
100
AcDbEntity
  8
0
  6
Continuous
 62
     7
370
    15
100
AcDbLine
 10
89.5
 20
64.0003408623
 30
0.0
 11
89.5
 21
59.0003409353
 31
0.0
  0
LINE
  5
299
330
1F
100
AcDbEntity
  8
0
  6
Continuous
 62
     7
370
    15
100
AcDbLine
 10
92.5
 20
59.0003409353
 30
0.0
 11
92.5
 21
64.0003408623
 31
0.0
  0
LINE
  5
29A
330
1F
100
AcDbEntity
  8
0
  6
Continuous
 62
     7
370
    15
100
AcDbLine
 10
99.5
 20
64.0003408623
 30
0.0
 11
99.5
 21
59.0003409353
 31
0.0
  0
LINE
  5
29B
330
1F
100
AcDbEntity
  8
0
  6
Continuous
 62
     7
370
    15
100
AcDbLine
 10
102.5
 20
59.0003409353
 30
0.0
 11
102.5
 21
64.0003408623
 31
0.0
  0
LINE
  5
29C
330
1F
100
AcDbEntity
  8
0
  6
Continuous
 62
     7
370
    15
100
AcDbLine
 10
99.5
 20
79.0003406432
 30
0.0
 11
99.5
 21
74.0003407162
 31
0.0
  0
LINE
  5
29D
330
1F
100
AcDbEntity
  8
0
  6
Continuous
 62
     7
370
    15
100
AcDbLine
 10
102.5
 20
74.0003407162
 30
0.0
 11
102.5
 21
79.0003406432
 31
0.0
  0
LINE
  5
29E
330
1F
100
AcDbEntity
  8
0
  6
Continuous
 62
     7
370
    15
100
AcDbLine
 10
99.5
 20
94.0003404242
 30
0.0
 11
99.5
 21
89.0003404972
 31
0.0
  0
LINE
  5
29F
330
1F
100
AcDbEntity
  8
0
  6
Continuous
 62
     7
370
    15
100
AcDbLine
 10
102.5
 20
89.0003404972
 30
0.0
 11
102.5
 21
94.0003404242
 31
0.0
  0
LINE
  5
2A0
330
1F
100
AcDbEntity
  8
0
  6
Continuous
 62
     7
370
    15
100
AcDbLine
 10
99.5
 20
109.0003402051
 30
0.0
 11
99.5
 21
104.0003402781
 31
0.0
  0
LINE
  5
2A1
330
1F
100
AcDbEntity
  8
0
  6
Continuous
 62
     7
370
    15
100
AcDbLine
 10
102.5
 20
104.0003402781
 30
0.0
 11
102.5
 21
109.0003402051
 31
0.0
  0
LINE
  5
2A2
330
1F
100
AcDbEntity
  8
0
  6
Continuous
 62
     7
370
    15
100
AcDbLine
 10
99.5
 20
124.0003399861
 30
0.0
 11
99.5
 21
119.0003400591
 31
0.0
  0
LINE
  5
2A3
330
1F
100
AcDbEntity
  8
0
  6
Continuous
 62
     7
370
    15
100
AcDbLine
 10
102.5
 20
119.0003400591
 30
0.0
 11
102.5
 21
124.0003399861
 31
0.0
  0
LINE
  5
2A4
330
1F
100
AcDbEntity
  8
0
  6
Continuous
 62
     7
370
    15
100
AcDbLine
 10
99.5
 20
139.000339767
 30
0.0
 11
99.5
 21
134.0003398401
 31
0.0
  0
LINE
  5
2A5
330
1F
100
AcDbEntity
  8
0
  6
Continuous
 62
     7
370
    15
100
AcDbLine
 10
102.5
 20
134.0003398401
 30
0.0
 11
102.5
 21
139.000339767
 31
0.0
  0
LINE
  5
2A6
330
1F
100
AcDbEntity
  8
0
  6
Continuous
 62
     7
370
    15
100
AcDbLine
 10
99.5
 20
154.000339548
 30
0.0
 11
99.5
 21
149.000339621
 31
0.0
  0
LINE
  5
2A7
330
1F
100
AcDbEntity
  8
0
  6
Continuous
 62
     7
370
    15
100
AcDbLine
 10
102.5
 20
149.000339621
 30
0.0
 11
102.5
 21
154.000339548
 31
0.0
  0
LINE
  5
2A8
330
1F
100
AcDbEntity
  8
0
  6
Continuous
 62
     7
370
    15
100
AcDbLine
 10
89.5
 20
79.0003406432
 30
0.0
 11
89.5
 21
74.0003407162
 31
0.0
  0
LINE
  5
2A9
330
1F
100
AcDbEntity
  8
0
  6
Continuous
 62
     7
370
    15
100
AcDbLine
 10
92.5
 20
74.0003407162
 30
0.0
 11
92.5
 21
79.0003406432
 31
0.0
  0
LINE
  5
2AA
330
1F
100
AcDbEntity
  8
0
  6
Continuous
 62
     7
370
    15
100
AcDbLine
 10
89.5
 20
94.0003404242
 30
0.0
 11
89.5
 21
89.0003404972
 31
0.0
  0
LINE
  5
2AB
330
1F
100
AcDbEntity
  8
0
  6
Continuous
 62
     7
370
    15
100
AcDbLine
 10
92.5
 20
89.0003404972
 30
0.0
 11
92.5
 21
94.0003404242
 31
0.0
  0
LINE
  5
2AC
330
1F
100
AcDbEntity
  8
0
  6
Continuous
 62
     7
370
    15
100
AcDbLine
 10
89.5
 20
109.0003402051
 30
0.0
 11
89.5
 21
104.0003402781
 31
0.0
  0
LINE
  5
2AD
330
1F
100
AcDbEntity
  8
0
  6
Continuous
 62
     7
370
    15
100
AcDbLine
 10
92.5
 20
104.0003402781
 30
0.0
 11
92.5
 21
109.0003402051
 31
0.0
  0
LINE
  5
2AE
330
1F
100
AcDbEntity
  8
0
  6
Continuous
 62
     7
370
    15
100
AcDbLine
 10
89.5
 20
124.0003399861
 30
0.0
 11
89.5
 21
119.0003400591
 31
0.0
  0
LINE
  5
2AF
330
1F
100
AcDbEntity
  8
0
  6
Continuous
 62
     7
370
    15
100
AcDbLine
 10
92.5
 20
119.0003400591
 30
0.0
 11
92.5
 21
124.0003399861
 31
0.0
  0
LINE
  5
2B0
330
1F
100
AcDbEntity
  8
0
  6
Continuous
 62
     7
370
    15
100
AcDbLine
 10
89.5
 20
139.000339767
 30
0.0
 11
89.5
 21
134.0003398401
 31
0.0
  0
LINE
  5
2B1
330
1F
100
AcDbEntity
  8
0
  6
Continuous
 62
     7
370
    15
100
AcDbLine
 10
92.5
 20
134.0003398401
 30
0.0
 11
92.5
 21
139.000339767
 31
0.0
  0
LINE
  5
2B2
330
1F
100
AcDbEntity
  8
0
  6
Continuous
 62
     7
370
    15
100
AcDbLine
 10
89.5
 20
154.000339548
 30
0.0
 11
89.5
 21
149.000339621
 31
0.0
  0
LINE
  5
2B3
330
1F
100
AcDbEntity
  8
0
  6
Continuous
 62
     7
370
    15
100
AcDbLine
 10
92.5
 20
149.000339621
 30
0.0
 11
92.5
 21
154.000339548
 31
0.0
  0
LINE
  5
2B4
330
1F
100
AcDbEntity
  8
0
  6
Continuous
 62
     7
370
    15
100
AcDbLine
 10
1.0
 20
0.0003417969
 30
0.0
 11
1.0
 21
0.0
 31
0.0
  0
LINE
  5
2B5
330
1F
100
AcDbEntity
  8
0
  6
Continuous
 62
     7
370
    15
100
AcDbLine
 10
191.0
 20
0.0
 30
0.0
 11
191.0
 21
0.0003417969
 31
0.0
  0
LINE
  5
2B6
330
1F
100
AcDbEntity
  8
0
  6
Continuous
 62
     7
370
    15
100
AcDbLine
 10
1.0
 20
0.0
 30
0.0
 11
191.0
 21
0.0
 31
0.0
  0
LINE
  5
2B7
330
1F
100
AcDbEntity
  8
0
  6
Continuous
 62
     7
370
    15
100
AcDbLine
 10
167.5
 20
11.5003416289
 30
0.0
 11
167.5
 21
11.4999998321
 31
0.0
  0
LINE
  5
2B8
330
1F
100
AcDbEntity
  8
0
  6
Continuous
 62
     7
370
    15
100
AcDbLine
 10
112.5
 20
11.5003416289
 30
0.0
 11
112.5
 21
11.4999998321
 31
0.0
  0
LINE
  5
2B9
330
1F
100
AcDbEntity
  8
0
  6
Continuous
 62
     7
370
    15
100
AcDbLine
 10
52.5
 20
11.5003416289
 30
0.0
 11
52.5
 21
11.4999998321
 31
0.0
  0
LINE
  5
2BA
330
1F
100
AcDbEntity
  8
0
  6
Continuous
 62
     7
370
    15
100
AcDbLine
 10
172.5
 20
11.5003416289
 30
0.0
 11
172.5
 21
11.4999998321
 31
0.0
  0
LINE
  5
2BB
330
1F
100
AcDbEntity
  8
0
  6
Continuous
 62
     7
370
    15
100
AcDbLine
 10
142.5
 20
11.5003416289
 30
0.0
 11
142.5
 21
11.4999998321
 31
0.0
  0
LINE
  5
2BC
330
1F
100
AcDbEntity
  8
0
  6
Continuous
 62
     7
370
    15
100
AcDbLine
 10
17.5
 20
11.5003416289
 30
0.0
 11
17.5
 21
11.4999998321
 31
0.0
  0
LINE
  5
2BD
330
1F
100
AcDbEntity
  8
0
  6
Continuous
 62
     7
370
    15
100
AcDbLine
 10
82.5
 20
11.5003416289
 30
0.0
 11
82.5
 21
11.4999998321
 31
0.0
  0
LINE
  5
2BE
330
1F
100
AcDbEntity
  8
0
  6
Continuous
 62
     7
370
    15
100
AcDbLine
 10
22.5
 20
11.5003416289
 30
0.0
 11
22.5
 21
11.4999998321
 31
0.0
  0
LINE
  5
2BF
330
1F
100
AcDbEntity
  8
0
  6
Continuous
 62
     7
370
    15
100
AcDbLine
 10
77.5
 20
11.5003416289
 30
0.0
 11
77.5
 21
11.4999998321
 31
0.0
  0
LINE
  5
2C0
330
1F
100
AcDbEntity
  8
0
  6
Continuous
 62
     7
370
    15
100
AcDbLine
 10
47.5
 20
11.5003416289
 30
0.0
 11
47.5
 21
11.4999998321
 31
0.0
  0
LINE
  5
2C1
330
1F
100
AcDbEntity
  8
0
  6
Continuous
 62
     7
370
    15
100
AcDbLine
 10
137.5
 20
11.5003416289
 30
0.0
 11
137.5
 21
11.4999998321
 31
0.0
  0
LINE
  5
2C2
330
1F
100
AcDbEntity
  8
0
  6
Continuous
 62
     7
370
    15
100
AcDbLine
 10
107.5
 20
11.5003416289
 30
0.0
 11
107.5
 21
11.4999998321
 31
0.0
  0
LINE
  5
2C3
330
1F
100
AcDbEntity
  8
0
  6
Continuous
 62
     7
370
    15
100
AcDbLine
 10
82.5
 20
11.4999998321
 30
0.0
 11
77.5
 21
11.4999998321
 31
0.0
  0
LINE
  5
2C4
330
1F
100
AcDbEntity
  8
0
  6
Continuous
 62
     7
370
    15
100
AcDbLine
 10
52.5
 20
11.4999998321
 30
0.0
 11
47.5
 21
11.4999998321
 31
0.0
  0
LINE
  5
2C5
330
1F
100
AcDbEntity
  8
0
  6
Continuous
 62
     7
370
    15
100
AcDbLine
 10
142.5
 20
11.4999998321
 30
0.0
 11
137.5
 21
11.4999998321
 31
0.0
  0
LINE
  5
2C6
330
1F
100
AcDbEntity
  8
0
  6
Continuous
 62
     7
370
    15
100
AcDbLine
 10
22.5
 20
11.4999998321
 30
0.0
 11
17.5
 21
11.4999998321
 31
0.0
  0
LINE
  5
2C7
330
1F
100
AcDbEntity
  8
0
  6
Continuous
 62
     7
370
    15
100
AcDbLine
 10
112.5
 20
11.4999998321
 30
0.0
 11
107.5
 21
11.4999998321
 31
0.0
  0
LINE
  5
2C8
330
1F
100
AcDbEntity
  8
0
  6
Continuous
 62
     7
370
    15
100
AcDbLine
 10
172.5
 20
11.4999998321
 30
0.0
 11
167.5
 21
11.4999998321
 31
0.0
  0
LINE
  5
2C9
330
1F
100
AcDbEntity
  8
0
  6
Continuous
 62
     7
370
    15
100
AcDbLine
 10
172.5
 20
21.5003414829
 30
0.0
 11
172.5
 21
21.499999686
 31
0.0
  0
LINE
  5
2CA
330
1F
100
AcDbEntity
  8
0
  6
Continuous
 62
     7
370
    15
100
AcDbLine
 10
142.5
 20
21.5003414829
 30
0.0
 11
142.5
 21
21.499999686
 31
0.0
  0
LINE
  5
2CB
330
1F
100
AcDbEntity
  8
0
  6
Continuous
 62
     7
370
    15
100
AcDbLine
 10
82.5
 20
21.5003414829
 30
0.0
 11
82.5
 21
21.499999686
 31
0.0
  0
LINE
  5
2CC
330
1F
100
AcDbEntity
  8
0
  6
Continuous
 62
     7
370
    15
100
AcDbLine
 10
22.5
 20
21.5003414829
 30
0.0
 11
22.5
 21
21.499999686
 31
0.0
  0
LINE
  5
2CD
330
1F
100
AcDbEntity
  8
0
  6
Continuous
 62
     7
370
    15
100
AcDbLine
 10
137.5
 20
21.5003414829
 30
0.0
 11
137.5
 21
21.499999686
 31
0.0
  0
LINE
  5
2CE
330
1F
100
AcDbEntity
  8
0
  6
Continuous
 62
     7
370
    15
100
AcDbLine
 10
47.5
 20
21.5003414829
 30
0.0
 11
47.5
 21
21.499999686
 31
0.0
  0
LINE
  5
2CF
330
1F
100
AcDbEntity
  8
0
  6
Continuous
 62
     7
370
    15
100
AcDbLine
 10
107.5
 20
21.5003414829
 30
0.0
 11
107.5
 21
21.499999686
 31
0.0
  0
LINE
  5
2D0
330
1F
100
AcDbEntity
  8
0
  6
Continuous
 62
     7
370
    15
100
AcDbLine
 10
77.5
 20
21.5003414829
 30
0.0
 11
77.5
 21
21.499999686
 31
0.0
  0
LINE
  5
2D1
330
1F
100
AcDbEntity
  8
0
  6
Continuous
 62
     7
370
    15
100
AcDbLine
 10
17.5
 20
21.5003414829
 30
0.0
 11
17.5
 21
21.499999686
 31
0.0
  0
LINE
  5
2D2
330
1F
100
AcDbEntity
  8
0
  6
Continuous
 62
     7
370
    15
100
AcDbLine
 10
112.5
 20
21.5003414829
 30
0.0
 11
112.5
 21
21.499999686
 31
0.0
  0
LINE
  5
2D3
330
1F
100
AcDbEntity
  8
0
  6
Continuous
 62
     7
370
    15
100
AcDbLine
 10
167.5
 20
21.5003414829
 30
0.0
 11
167.5
 21
21.499999686
 31
0.0
  0
LINE
  5
2D4
330
1F
100
AcDbEntity
  8
0
  6
Continuous
 62
     7
370
    15
100
AcDbLine
 10
52.5
 20
21.5003414829
 30
0.0
 11
52.5
 21
21.499999686
 31
0.0
  0
LINE
  5
2D5
330
1F
100
AcDbEntity
  8
0
  6
Continuous
 62
     7
370
    15
100
AcDbLine
 10
82.5
 20
21.499999686
 30
0.0
 11
77.5
 21
21.499999686
 31
0.0
  0
LINE
  5
2D6
330
1F
100
AcDbEntity
  8
0
  6
Continuous
 62
     7
370
    15
100
AcDbLine
 10
112.5
 20
21.499999686
 30
0.0
 11
107.5
 21
21.499999686
 31
0.0
  0
LINE
  5
2D7
330
1F
100
AcDbEntity
  8
0
  6
Continuous
 62
     7
370
    15
100
AcDbLine
 10
22.5
 20
21.499999686
 30
0.0
 11
17.5
 21
21.499999686
 31
0.0
  0
LINE
  5
2D8
330
1F
100
AcDbEntity
  8
0
  6
Continuous
 62
     7
370
    15
100
AcDbLine
 10
142.5
 20
21.499999686
 30
0.0
 11
137.5
 21
21.499999686
 31
0.0
  0
LINE
  5
2D9
330
1F
100
AcDbEntity
  8
0
  6
Continuous
 62
     7
370
    15
100
AcDbLine
 10
52.5
 20
21.499999686
 30
0.0
 11
47.5
 21
21.499999686
 31
0.0
  0
LINE
  5
2DA
330
1F
100
AcDbEntity
  8
0
  6
Continuous
 62
     7
370
    15
100
AcDbLine
 10
172.5
 20
21.499999686
 30
0.0
 11
167.5
 21
21.499999686
 31
0.0
  0
LINE
  5
2DB
330
1F
100
AcDbEntity
  8
0
  6
Continuous
 62
     7
370
    15
100
AcDbLine
 10
22.5
 20
31.5003413369
 30
0.0
 11
22.5
 21
31.49999954
 31
0.0
  0
LINE
  5
2DC
330
1F
100
AcDbEntity
  8
0
  6
Continuous
 62
     7
370
    15
100
AcDbLine
 10
52.5
 20
31.5003413369
 30
0.0
 11
52.5
 21
31.49999954
 31
0.0
  0
LINE
  5
2DD
330
1F
100
AcDbEntity
  8
0
  6
Continuous
 62
     7
370
    15
100
AcDbLine
 10
167.5
 20
31.5003413369
 30
0.0
 11
167.5
 21
31.49999954
 31
0.0
  0
LINE
  5
2DE
330
1F
100
AcDbEntity
  8
0
  6
Continuous
 62
     7
370
    15
100
AcDbLine
 10
82.5
 20
31.5003413369
 30
0.0
 11
82.5
 21
31.49999954
 31
0.0
  0
LINE
  5
2DF
330
1F
100
AcDbEntity
  8
0
  6
Continuous
 62
     7
370
    15
100
AcDbLine
 10
107.5
 20
31.5003413369
 30
0.0
 11
107.5
 21
31.49999954
 31
0.0
  0
LINE
  5
2E0
330
1F
100
AcDbEntity
  8
0
  6
Continuous
 62
     7
370
    15
100
AcDbLine
 10
112.5
 20
31.5003413369
 30
0.0
 11
112.5
 21
31.49999954
 31
0.0
  0
LINE
  5
2E1
330
1F
100
AcDbEntity
  8
0
  6
Continuous
 62
     7
370
    15
100
AcDbLine
 10
47.5
 20
31.5003413369
 30
0.0
 11
47.5
 21
31.49999954
 31
0.0
  0
LINE
  5
2E2
330
1F
100
AcDbEntity
  8
0
  6
Continuous
 62
     7
370
    15
100
AcDbLine
 10
137.5
 20
31.5003413369
 30
0.0
 11
137.5
 21
31.49999954
 31
0.0
  0
LINE
  5
2E3
330
1F
100
AcDbEntity
  8
0
  6
Continuous
 62
     7
370
    15
100
AcDbLine
 10
142.5
 20
31.5003413369
 30
0.0
 11
142.5
 21
31.49999954
 31
0.0
  0
LINE
  5
2E4
330
1F
100
AcDbEntity
  8
0
  6
Continuous
 62
     7
370
    15
100
AcDbLine
 10
17.5
 20
31.5003413369
 30
0.0
 11
17.5
 21
31.49999954
 31
0.0
  0
LINE
  5
2E5
330
1F
100
AcDbEntity
  8
0
  6
Continuous
 62
     7
370
    15
100
AcDbLine
 10
172.5
 20
31.5003413369
 30
0.0
 11
172.5
 21
31.49999954
 31
0.0
  0
LINE
  5
2E6
330
1F
100
AcDbEntity
  8
0
  6
Continuous
 62
     7
370
    15
100
AcDbLine
 10
77.5
 20
31.5003413369
 30
0.0
 11
77.5
 21
31.49999954
 31
0.0
  0
LINE
  5
2E7
330
1F
100
AcDbEntity
  8
0
  6
Continuous
 62
     7
370
    15
100
AcDbLine
 10
112.5
 20
31.49999954
 30
0.0
 11
107.5
 21
31.49999954
 31
0.0
  0
LINE
  5
2E8
330
1F
100
AcDbEntity
  8
0
  6
Continuous
 62
     7
370
    15
100
AcDbLine
 10
52.5
 20
31.49999954
 30
0.0
 11
47.5
 21
31.49999954
 31
0.0
  0
LINE
  5
2E9
330
1F
100
AcDbEntity
  8
0
  6
Continuous
 62
     7
370
    15
100
AcDbLine
 10
142.5
 20
31.49999954
 30
0.0
 11
137.5
 21
31.49999954
 31
0.0
  0
LINE
  5
2EA
330
1F
100
AcDbEntity
  8
0
  6
Continuous
 62
     7
370
    15
100
AcDbLine
 10
82.5
 20
31.49999954
 30
0.0
 11
77.5
 21
31.49999954
 31
0.0
  0
LINE
  5
2EB
330
1F
100
AcDbEntity
  8
0
  6
Continuous
 62
     7
370
    15
100
AcDbLine
 10
22.5
 20
31.49999954
 30
0.0
 11
17.5
 21
31.49999954
 31
0.0
  0
LINE
  5
2EC
330
1F
100
AcDbEntity
  8
0
  6
Continuous
 62
     7
370
    15
100
AcDbLine
 10
172.5
 20
31.49999954
 30
0.0
 11
167.5
 21
31.49999954
 31
0.0
  0
ARC
  5
2ED
330
1F
100
AcDbEntity
  8
0
  6
Continuous
 62
     7
370
    15
100
AcDbCircle
 10
22.5000000176
 20
10.0003416508
 30
0.0
 40
1.499999978095288
100
AcDbArc
 50
269.9999993267
 51
90.0000006733
  0
ARC
  5
2EE
330
1F
100
AcDbEntity
  8
0
  6
Continuous
 62
     7
370
    15
100
AcDbCircle
 10
17.4999999824
 20
10.0003416508
 30
0.0
 40
1.499999978095288
100
AcDbArc
 50
89.9999993267
 51
270.0000006733
  0
ARC
  5
2EF
330
1F
100
AcDbEntity
  8
0
  6
Continuous
 62
     7
370
    15
100
AcDbCircle
 10
172.5000000176
 20
10.0003416508
 30
0.0
 40
1.499999978095288
100
AcDbArc
 50
269.9999993267
 51
90.0000006733
  0
ARC
  5
2F0
330
1F
100
AcDbEntity
  8
0
  6
Continuous
 62
     7
370
    15
100
AcDbCircle
 10
167.4999999824
 20
10.0003416508
 30
0.0
 40
1.499999978095288
100
AcDbArc
 50
89.9999993267
 51
270.0000006733
  0
ARC
  5
2F1
330
1F
100
AcDbEntity
  8
0
  6
Continuous
 62
     7
370
    15
100
AcDbCircle
 10
112.5000000176
 20
10.0003416508
 30
0.0
 40
1.499999978095288
100
AcDbArc
 50
269.9999993267
 51
90.0000006733
  0
ARC
  5
2F2
330
1F
100
AcDbEntity
  8
0
  6
Continuous
 62
     7
370
    15
100
AcDbCircle
 10
107.4999999824
 20
10.0003416508
 30
0.0
 40
1.499999978095288
100
AcDbArc
 50
89.9999993267
 51
270.0000006733
  0
ARC
  5
2F3
330
1F
100
AcDbEntity
  8
0
  6
Continuous
 62
     7
370
    15
100
AcDbCircle
 10
52.5000000176
 20
10.0003416508
 30
0.0
 40
1.499999978095288
100
AcDbArc
 50
269.9999993267
 51
90.0000006733
  0
ARC
  5
2F4
330
1F
100
AcDbEntity
  8
0
  6
Continuous
 62
     7
370
    15
100
AcDbCircle
 10
47.4999999824
 20
10.0003416508
 30
0.0
 40
1.499999978095288
100
AcDbArc
 50
89.9999993267
 51
270.0000006733
  0
ARC
  5
2F5
330
1F
100
AcDbEntity
  8
0
  6
Continuous
 62
     7
370
    15
100
AcDbCircle
 10
142.5000000176
 20
20.0003415048
 30
0.0
 40
1.499999978095289
100
AcDbArc
 50
269.9999993267
 51
90.0000006733
  0
ARC
  5
2F6
330
1F
100
AcDbEntity
  8
0
  6
Continuous
 62
     7
370
    15
100
AcDbCircle
 10
137.4999999824
 20
20.0003415048
 30
0.0
 40
1.499999978095289
100
AcDbArc
 50
89.9999993267
 51
270.0000006733
  0
ARC
  5
2F7
330
1F
100
AcDbEntity
  8
0
  6
Continuous
 62
     7
370
    15
100
AcDbCircle
 10
82.5000000176
 20
20.0003415048
 30
0.0
 40
1.499999978095289
100
AcDbArc
 50
269.9999993267
 51
90.0000006733
  0
ARC
  5
2F8
330
1F
100
AcDbEntity
  8
0
  6
Continuous
 62
     7
370
    15
100
AcDbCircle
 10
77.4999999824
 20
20.0003415048
 30
0.0
 40
1.499999978095289
100
AcDbArc
 50
89.9999993267
 51
270.0000006733
  0
ARC
  5
2F9
330
1F
100
AcDbEntity
  8
0
  6
Continuous
 62
     7
370
    15
100
AcDbCircle
 10
172.5000000176
 20
30.0003413588
 30
0.0
 40
1.499999978095289
100
AcDbArc
 50
269.9999993267
 51
90.0000006733
  0
ARC
  5
2FA
330
1F
100
AcDbEntity
  8
0
  6
Continuous
 62
     7
370
    15
100
AcDbCircle
 10
167.4999999824
 20
30.0003413588
 30
0.0
 40
1.499999978095289
100
AcDbArc
 50
89.9999993267
 51
270.0000006733
  0
ARC
  5
2FB
330
1F
100
AcDbEntity
  8
0
  6
Continuous
 62
     7
370
    15
100
AcDbCircle
 10
112.5000000176
 20
30.0003413588
 30
0.0
 40
1.499999978095289
100
AcDbArc
 50
269.9999993267
 51
90.0000006733
  0
ARC
  5
2FC
330
1F
100
AcDbEntity
  8
0
  6
Continuous
 62
     7
370
    15
100
AcDbCircle
 10
107.4999999824
 20
30.0003413588
 30
0.0
 40
1.499999978095289
100
AcDbArc
 50
89.9999993267
 51
270.0000006733
  0
ARC
  5
2FD
330
1F
100
AcDbEntity
  8
0
  6
Continuous
 62
     7
370
    15
100
AcDbCircle
 10
52.5000000176
 20
30.0003413588
 30
0.0
 40
1.499999978095289
100
AcDbArc
 50
269.9999993267
 51
90.0000006733
  0
ARC
  5
2FE
330
1F
100
AcDbEntity
  8
0
  6
Continuous
 62
     7
370
    15
100
AcDbCircle
 10
47.4999999824
 20
30.0003413588
 30
0.0
 40
1.499999978095289
100
AcDbArc
 50
89.9999993267
 51
270.0000006733
  0
ARC
  5
2FF
330
1F
100
AcDbEntity
  8
0
  6
Continuous
 62
     7
370
    15
100
AcDbCircle
 10
183.0
 20
176.0003392479
 30
0.0
 40
2.0
100
AcDbArc
 50
180.0000006068
 51
359.9999993932
  0
ARC
  5
300
330
1F
100
AcDbEntity
  8
0
  6
Continuous
 62
     7
370
    15
100
AcDbCircle
 10
183.0
 20
188.0003390303
 30
0.0
 40
2.0
100
AcDbArc
 50
0.0000006068
 51
179.9999993932
  0
ARC
  5
301
330
1F
100
AcDbEntity
  8
0
  6
Continuous
 62
     7
370
    15
100
AcDbCircle
 10
171.0
 20
176.0003392479
 30
0.0
 40
2.000000000000057
100
AcDbArc
 50
180.0000006068
 51
359.9999993932
  0
ARC
  5
302
330
1F
100
AcDbEntity
  8
0
  6
Continuous
 62
     7
370
    15
100
AcDbCircle
 10
171.0
 20
188.0003390303
 30
0.0
 40
2.000000000000057
100
AcDbArc
 50
0.0000006068
 51
179.9999993932
  0
ARC
  5
303
330
1F
100
AcDbEntity
  8
0
  6
Continuous
 62
     7
370
    15
100
AcDbCircle
 10
147.0
 20
176.0003392479
 30
0.0
 40
2.0
100
AcDbArc
 50
180.0000006068
 51
359.9999993932
  0
ARC
  5
304
330
1F
100
AcDbEntity
  8
0
  6
Continuous
 62
     7
370
    15
100
AcDbCircle
 10
147.0
 20
188.0003390303
 30
0.0
 40
2.0
100
AcDbArc
 50
0.0000006068
 51
179.9999993932
  0
ARC
  5
305
330
1F
100
AcDbEntity
  8
0
  6
Continuous
 62
     7
370
    15
100
AcDbCircle
 10
135.0
 20
176.0003392479
 30
0.0
 40
2.0
100
AcDbArc
 50
180.0000006068
 51
359.9999993932
  0
ARC
  5
306
330
1F
100
AcDbEntity
  8
0
  6
Continuous
 62
     7
370
    15
100
AcDbCircle
 10
135.0
 20
188.0003390303
 30
0.0
 40
2.0
100
AcDbArc
 50
0.0000006068
 51
179.9999993932
  0
ARC
  5
307
330
1F
100
AcDbEntity
  8
0
  6
Continuous
 62
     7
370
    15
100
AcDbCircle
 10
123.0
 20
176.0003392479
 30
0.0
 40
2.0
100
AcDbArc
 50
180.0000006068
 51
359.9999993932
  0
ARC
  5
308
330
1F
100
AcDbEntity
  8
0
  6
Continuous
 62
     7
370
    15
100
AcDbCircle
 10
123.0
 20
188.0003390303
 30
0.0
 40
2.0
100
AcDbArc
 50
0.0000006068
 51
179.9999993932
  0
ARC
  5
309
330
1F
100
AcDbEntity
  8
0
  6
Continuous
 62
     7
370
    15
100
AcDbCircle
 10
111.0
 20
176.0003392479
 30
0.0
 40
2.0
100
AcDbArc
 50
180.0000006068
 51
359.9999993932
  0
ARC
  5
30A
330
1F
100
AcDbEntity
  8
0
  6
Continuous
 62
     7
370
    15
100
AcDbCircle
 10
111.0
 20
188.0003390303
 30
0.0
 40
2.0
100
AcDbArc
 50
0.0000006068
 51
179.9999993932
  0
ARC
  5
30B
330
1F
100
AcDbEntity
  8
0
  6
Continuous
 62
     7
370
    15
100
AcDbCircle
 10
99.0
 20
176.0003392479
 30
0.0
 40
2.0
100
AcDbArc
 50
180.0000006068
 51
359.9999993932
  0
ARC
  5
30C
330
1F
100
AcDbEntity
  8
0
  6
Continuous
 62
     7
370
    15
100
AcDbCircle
 10
99.0
 20
188.0003390303
 30
0.0
 40
2.0
100
AcDbArc
 50
0.0000006068
 51
179.9999993932
  0
ARC
  5
30D
330
1F
100
AcDbEntity
  8
0
  6
Continuous
 62
     7
370
    15
100
AcDbCircle
 10
87.0
 20
176.0003392479
 30
0.0
 40
2.000000000000028
100
AcDbArc
 50
180.0000006068
 51
359.9999993932
  0
ARC
  5
30E
330
1F
100
AcDbEntity
  8
0
  6
Continuous
 62
     7
370
    15
100
AcDbCircle
 10
87.0
 20
188.0003390303
 30
0.0
 40
2.000000000000014
100
AcDbArc
 50
0.0000006068
 51
179.9999993932
  0
ARC
  5
30F
330
1F
100
AcDbEntity
  8
0
  6
Continuous
 62
     7
370
    15
100
AcDbCircle
 10
75.0
 20
176.0003392479
 30
0.0
 40
2.0
100
AcDbArc
 50
180.0000006068
 51
359.9999993932
  0
ARC
  5
310
330
1F
100
AcDbEntity
  8
0
  6
Continuous
 62
     7
370
    15
100
AcDbCircle
 10
75.0
 20
188.0003390303
 30
0.0
 40
2.0
100
AcDbArc
 50
0.0000006068
 51
179.9999993932
  0
ARC
  5
311
330
1F
100
AcDbEntity
  8
0
  6
Continuous
 62
     7
370
    15
100
AcDbCircle
 10
63.0
 20
176.0003392479
 30
0.0
 40
2.0
100
AcDbArc
 50
180.0000006068
 51
359.9999993932
  0
ARC
  5
312
330
1F
100
AcDbEntity
  8
0
  6
Continuous
 62
     7
370
    15
100
AcDbCircle
 10
63.0
 20
188.0003390303
 30
0.0
 40
2.0
100
AcDbArc
 50
0.0000006068
 51
179.9999993932
  0
ARC
  5
313
330
1F
100
AcDbEntity
  8
0
  6
Continuous
 62
     7
370
    15
100
AcDbCircle
 10
51.0
 20
176.0003392479
 30
0.0
 40
2.000000000000014
100
AcDbArc
 50
180.0000006068
 51
359.9999993932
  0
ARC
  5
314
330
1F
100
AcDbEntity
  8
0
  6
Continuous
 62
     7
370
    15
100
AcDbCircle
 10
51.0
 20
188.0003390303
 30
0.0
 40
2.000000000000014
100
AcDbArc
 50
0.0000006068
 51
179.9999993932
  0
ARC
  5
315
330
1F
100
AcDbEntity
  8
0
  6
Continuous
 62
     7
370
    15
100
AcDbCircle
 10
39.0
 20
176.0003392479
 30
0.0
 40
2.0
100
AcDbArc
 50
180.0000006068
 51
359.9999993932
  0
ARC
  5
316
330
1F
100
AcDbEntity
  8
0
  6
Continuous
 62
     7
370
    15
100
AcDbCircle
 10
39.0
 20
188.0003390303
 30
0.0
 40
2.0
100
AcDbArc
 50
0.0000006068
 51
179.9999993932
  0
ARC
  5
317
330
1F
100
AcDbEntity
  8
0
  6
Continuous
 62
     7
370
    15
100
AcDbCircle
 10
15.0
 20
176.0003392479
 30
0.0
 40
2.000000000000002
100
AcDbArc
 50
180.0000006068
 51
359.9999993932
  0
ARC
  5
318
330
1F
100
AcDbEntity
  8
0
  6
Continuous
 62
     7
370
    15
100
AcDbCircle
 10
15.0
 20
188.0003390303
 30
0.0
 40
2.000000000000002
100
AcDbArc
 50
0.0000006068
 51
179.9999993932
  0
ARC
  5
319
330
1F
100
AcDbEntity
  8
0
  6
Continuous
 62
     7
370
    15
100
AcDbCircle
 10
191.0000000073
 20
1.0003417896
 30
0.0
 40
0.9999999926984628
100
AcDbArc
 50
269.9999995817
 51
359.9999995817
  0
ARC
  5
31A
330
1F
100
AcDbEntity
  8
0
  6
Continuous
 62
     7
370
    15
100
AcDbCircle
 10
0.9999999927
 20
1.0003417896
 30
0.0
 40
0.9999999926984348
100
AcDbArc
 50
180.0000004184
 51
270.0000004184
  0
ARC
  5
31B
330
1F
100
AcDbEntity
  8
0
  6
Continuous
 62
     7
370
    15
100
AcDbCircle
 10
0.9999999927
 20
191.0003390004
 30
0.0
 40
0.9999999926984927
100
AcDbArc
 50
89.9999995817
 51
179.9999995816
  0
ARC
  5
31C
330
1F
100
AcDbEntity
  8
0
  6
Continuous
 62
     7
370
    15
100
AcDbCircle
 10
191.0000000073
 20
191.0003390004
 30
0.0
 40
0.9999999926984913
100
AcDbArc
 50
0.0000004184
 51
90.0000004183
  0
ARC
  5
31D
330
1F
100
AcDbEntity
  8
0
  6
Continuous
 62
     7
370
    15
100
AcDbCircle
 10
9.0
 20
176.0003392479
 30
0.0
 40
2.000000000000002
100
AcDbArc
 50
180.0000006068
 51
359.9999993932
  0
ARC
  5
31E
330
1F
100
AcDbEntity
  8
0
  6
Continuous
 62
     7
370
    15
100
AcDbCircle
 10
9.0
 20
188.0003390303
 30
0.0
 40
1.999999999999997
100
AcDbArc
 50
0.0000006068
 51
179.9999993932
  0
ARC
  5
31F
330
1F
100
AcDbEntity
  8
0
  6
Continuous
 62
     7
370
    15
100
AcDbCircle
 10
21.0
 20
176.0003392479
 30
0.0
 40
2.000000000000004
100
AcDbArc
 50
180.0000006068
 51
359.9999993932
  0
ARC
  5
320
330
1F
100
AcDbEntity
  8
0
  6
Continuous
 62
     7
370
    15
100
AcDbCircle
 10
21.0
 20
188.0003390303
 30
0.0
 40
1.999999999999996
100
AcDbArc
 50
0.0000006068
 51
179.9999993932
  0
ARC
  5
321
330
1F
100
AcDbEntity
  8
0
  6
Continuous
 62
     7
370
    15
100
AcDbCircle
 10
45.0
 20
176.0003392479
 30
0.0
 40
2.000000000000007
100
AcDbArc
 50
180.0000006068
 51
359.9999993932
  0
ARC
  5
322
330
1F
100
AcDbEntity
  8
0
  6
Continuous
 62
     7
370
    15
100
AcDbCircle
 10
45.0
 20
188.0003390303
 30
0.0
 40
2.000000000000007
100
AcDbArc
 50
0.0000006068
 51
179.9999993932
  0
ARC
  5
323
330
1F
100
AcDbEntity
  8
0
  6
Continuous
 62
     7
370
    15
100
AcDbCircle
 10
57.0
 20
176.0003392479
 30
0.0
 40
2.000000000000014
100
AcDbArc
 50
180.0000006068
 51
359.9999993932
  0
ARC
  5
324
330
1F
100
AcDbEntity
  8
0
  6
Continuous
 62
     7
370
    15
100
AcDbCircle
 10
57.0
 20
188.0003390303
 30
0.0
 40
2.000000000000014
100
AcDbArc
 50
0.0000006068
 51
179.9999993932
  0
ARC
  5
325
330
1F
100
AcDbEntity
  8
0
  6
Continuous
 62
     7
370
    15
100
AcDbCircle
 10
69.0
 20
176.0003392479
 30
0.0
 40
2.000000000000028
100
AcDbArc
 50
180.0000006068
 51
359.9999993932
  0
ARC
  5
326
330
1F
100
AcDbEntity
  8
0
  6
Continuous
 62
     7
370
    15
100
AcDbCircle
 10
69.0
 20
188.0003390303
 30
0.0
 40
2.000000000000014
100
AcDbArc
 50
0.0000006068
 51
179.9999993932
  0
ARC
  5
327
330
1F
100
AcDbEntity
  8
0
  6
Continuous
 62
     7
370
    15
100
AcDbCircle
 10
81.0
 20
176.0003392479
 30
0.0
 40
2.0
100
AcDbArc
 50
180.0000006068
 51
359.9999993932
  0
ARC
  5
328
330
1F
100
AcDbEntity
  8
0
  6
Continuous
 62
     7
370
    15
100
AcDbCircle
 10
81.0
 20
188.0003390303
 30
0.0
 40
2.0
100
AcDbArc
 50
0.0000006068
 51
179.9999993932
  0
ARC
  5
329
330
1F
100
AcDbEntity
  8
0
  6
Continuous
 62
     7
370
    15
100
AcDbCircle
 10
93.0
 20
176.0003392479
 30
0.0
 40
2.0
100
AcDbArc
 50
180.0000006068
 51
359.9999993932
  0
ARC
  5
32A
330
1F
100
AcDbEntity
  8
0
  6
Continuous
 62
     7
370
    15
100
AcDbCircle
 10
93.0
 20
188.0003390303
 30
0.0
 40
2.0
100
AcDbArc
 50
0.0000006068
 51
179.9999993932
  0
ARC
  5
32B
330
1F
100
AcDbEntity
  8
0
  6
Continuous
 62
     7
370
    15
100
AcDbCircle
 10
105.0
 20
176.0003392479
 30
0.0
 40
2.0
100
AcDbArc
 50
180.0000006068
 51
359.9999993932
  0
ARC
  5
32C
330
1F
100
AcDbEntity
  8
0
  6
Continuous
 62
     7
370
    15
100
AcDbCircle
 10
105.0
 20
188.0003390303
 30
0.0
 40
2.0
100
AcDbArc
 50
0.0000006068
 51
179.9999993932
  0
ARC
  5
32D
330
1F
100
AcDbEntity
  8
0
  6
Continuous
 62
     7
370
    15
100
AcDbCircle
 10
117.0
 20
176.0003392479
 30
0.0
 40
2.000000000000028
100
AcDbArc
 50
180.0000006068
 51
359.9999993932
  0
ARC
  5
32E
330
1F
100
AcDbEntity
  8
0
  6
Continuous
 62
     7
370
    15
100
AcDbCircle
 10
117.0
 20
188.0003390303
 30
0.0
 40
2.000000000000014
100
AcDbArc
 50
0.0000006068
 51
179.9999993932
  0
ARC
  5
32F
330
1F
100
AcDbEntity
  8
0
  6
Continuous
 62
     7
370
    15
100
AcDbCircle
 10
129.0
 20
176.0003392479
 30
0.0
 40
2.0
100
AcDbArc
 50
180.0000006068
 51
359.9999993932
  0
ARC
  5
330
330
1F
100
AcDbEntity
  8
0
  6
Continuous
 62
     7
370
    15
100
AcDbCircle
 10
129.0
 20
188.0003390303
 30
0.0
 40
2.0
100
AcDbArc
 50
0.0000006068
 51
179.9999993932
  0
ARC
  5
331
330
1F
100
AcDbEntity
  8
0
  6
Continuous
 62
     7
370
    15
100
AcDbCircle
 10
141.0
 20
176.0003392479
 30
0.0
 40
2.000000000000057
100
AcDbArc
 50
180.0000006068
 51
359.9999993932
  0
ARC
  5
332
330
1F
100
AcDbEntity
  8
0
  6
Continuous
 62
     7
370
    15
100
AcDbCircle
 10
141.0
 20
188.0003390303
 30
0.0
 40
2.000000000000057
100
AcDbArc
 50
0.0000006068
 51
179.9999993932
  0
ARC
  5
333
330
1F
100
AcDbEntity
  8
0
  6
Continuous
 62
     7
370
    15
100
AcDbCircle
 10
153.0
 20
176.0003392479
 30
0.0
 40
2.0
100
AcDbArc
 50
180.0000006068
 51
359.9999993932
  0
ARC
  5
334
330
1F
100
AcDbEntity
  8
0
  6
Continuous
 62
     7
370
    15
100
AcDbCircle
 10
153.0
 20
188.0003390303
 30
0.0
 40
2.0
100
AcDbArc
 50
0.0000006068
 51
179.9999993932
  0
ARC
  5
335
330
1F
100
AcDbEntity
  8
0
  6
Continuous
 62
     7
370
    15
100
AcDbCircle
 10
177.0
 20
176.0003392479
 30
0.0
 40
2.0
100
AcDbArc
 50
180.0000006068
 51
359.9999993932
  0
ARC
  5
336
330
1F
100
AcDbEntity
  8
0
  6
Continuous
 62
     7
370
    15
100
AcDbCircle
 10
177.0
 20
188.0003390303
 30
0.0
 40
2.0
100
AcDbArc
 50
0.0000006068
 51
179.9999993932
  0
ARC
  5
337
330
1F
100
AcDbEntity
  8
0
  6
Continuous
 62
     7
370
    15
100
AcDbCircle
 10
22.5000000176
 20
30.0003413588
 30
0.0
 40
1.499999978095289
100
AcDbArc
 50
269.9999993267
 51
90.0000006733
  0
ARC
  5
338
330
1F
100
AcDbEntity
  8
0
  6
Continuous
 62
     7
370
    15
100
AcDbCircle
 10
17.4999999824
 20
30.0003413588
 30
0.0
 40
1.499999978095289
100
AcDbArc
 50
89.9999993267
 51
270.0000006733
  0
ARC
  5
339
330
1F
100
AcDbEntity
  8
0
  6
Continuous
 62
     7
370
    15
100
AcDbCircle
 10
82.5000000176
 20
30.0003413588
 30
0.0
 40
1.499999978095289
100
AcDbArc
 50
269.9999993267
 51
90.0000006733
  0
ARC
  5
33A
330
1F
100
AcDbEntity
  8
0
  6
Continuous
 62
     7
370
    15
100
AcDbCircle
 10
77.4999999824
 20
30.0003413588
 30
0.0
 40
1.499999978095289
100
AcDbArc
 50
89.9999993267
 51
270.0000006733
  0
ARC
  5
33B
330
1F
100
AcDbEntity
  8
0
  6
Continuous
 62
     7
370
    15
100
AcDbCircle
 10
142.5000000176
 20
30.0003413588
 30
0.0
 40
1.499999978095289
100
AcDbArc
 50
269.9999993267
 51
90.0000006733
  0
ARC
  5
33C
330
1F
100
AcDbEntity
  8
0
  6
Continuous
 62
     7
370
    15
100
AcDbCircle
 10
137.4999999824
 20
30.0003413588
 30
0.0
 40
1.499999978095289
100
AcDbArc
 50
89.9999993267
 51
270.0000006733
  0
ARC
  5
33D
330
1F
100
AcDbEntity
  8
0
  6
Continuous
 62
     7
370
    15
100
AcDbCircle
 10
52.5000000176
 20
20.0003415048
 30
0.0
 40
1.499999978095289
100
AcDbArc
 50
269.9999993267
 51
90.0000006733
  0
ARC
  5
33E
330
1F
100
AcDbEntity
  8
0
  6
Continuous
 62
     7
370
    15
100
AcDbCircle
 10
47.4999999824
 20
20.0003415048
 30
0.0
 40
1.499999978095289
100
AcDbArc
 50
89.9999993267
 51
270.0000006733
  0
ARC
  5
33F
330
1F
100
AcDbEntity
  8
0
  6
Continuous
 62
     7
370
    15
100
AcDbCircle
 10
112.5000000176
 20
20.0003415048
 30
0.0
 40
1.499999978095289
100
AcDbArc
 50
269.9999993267
 51
90.0000006733
  0
ARC
  5
340
330
1F
100
AcDbEntity
  8
0
  6
Continuous
 62
     7
370
    15
100
AcDbCircle
 10
107.4999999824
 20
20.0003415048
 30
0.0
 40
1.499999978095289
100
AcDbArc
 50
89.9999993267
 51
270.0000006733
  0
ARC
  5
341
330
1F
100
AcDbEntity
  8
0
  6
Continuous
 62
     7
370
    15
100
AcDbCircle
 10
172.5000000176
 20
20.0003415048
 30
0.0
 40
1.499999978095289
100
AcDbArc
 50
269.9999993267
 51
90.0000006733
  0
ARC
  5
342
330
1F
100
AcDbEntity
  8
0
  6
Continuous
 62
     7
370
    15
100
AcDbCircle
 10
167.4999999824
 20
20.0003415048
 30
0.0
 40
1.499999978095289
100
AcDbArc
 50
89.9999993267
 51
270.0000006733
  0
ARC
  5
343
330
1F
100
AcDbEntity
  8
0
  6
Continuous
 62
     7
370
    15
100
AcDbCircle
 10
82.5000000176
 20
10.0003416508
 30
0.0
 40
1.499999978095288
100
AcDbArc
 50
269.9999993267
 51
90.0000006733
  0
ARC
  5
344
330
1F
100
AcDbEntity
  8
0
  6
Continuous
 62
     7
370
    15
100
AcDbCircle
 10
77.4999999824
 20
10.0003416508
 30
0.0
 40
1.499999978095288
100
AcDbArc
 50
89.9999993267
 51
270.0000006733
  0
ARC
  5
345
330
1F
100
AcDbEntity
  8
0
  6
Continuous
 62
     7
370
    15
100
AcDbCircle
 10
142.5000000176
 20
10.0003416508
 30
0.0
 40
1.499999978095288
100
AcDbArc
 50
269.9999993267
 51
90.0000006733
  0
ARC
  5
346
330
1F
100
AcDbEntity
  8
0
  6
Continuous
 62
     7
370
    15
100
AcDbCircle
 10
137.4999999824
 20
10.0003416508
 30
0.0
 40
1.499999978095288
100
AcDbArc
 50
89.9999993267
 51
270.0000006733
  0
ARC
  5
347
330
1F
100
AcDbEntity
  8
0
  6
Continuous
 62
     7
370
    15
100
AcDbCircle
 10
22.5000000176
 20
20.0003415048
 30
0.0
 40
1.499999978095289
100
AcDbArc
 50
269.9999993267
 51
90.0000006733
  0
ARC
  5
348
330
1F
100
AcDbEntity
  8
0
  6
Continuous
 62
     7
370
    15
100
AcDbCircle
 10
17.4999999824
 20
20.0003415048
 30
0.0
 40
1.499999978095289
100
AcDbArc
 50
89.9999993267
 51
270.0000006733
  0
ARC
  5
349
330
1F
100
AcDbEntity
  8
0
  6
Continuous
 62
     7
370
    15
100
AcDbCircle
 10
91.0
 20
64.0003408446
 30
0.0
 40
1.5
100
AcDbArc
 50
0.0000006733
 51
179.9999993267
  0
ARC
  5
34A
330
1F
100
AcDbEntity
  8
0
  6
Continuous
 62
     7
370
    15
100
AcDbCircle
 10
91.0
 20
59.0003409529
 30
0.0
 40
1.5
100
AcDbArc
 50
180.0000006733
 51
359.9999993267
  0
ARC
  5
34B
330
1F
100
AcDbEntity
  8
0
  6
Continuous
 62
     7
370
    15
100
AcDbCircle
 10
101.0
 20
64.0003408446
 30
0.0
 40
1.500000000000029
100
AcDbArc
 50
0.0000006733
 51
179.9999993267
  0
ARC
  5
34C
330
1F
100
AcDbEntity
  8
0
  6
Continuous
 62
     7
370
    15
100
AcDbCircle
 10
101.0
 20
59.0003409529
 30
0.0
 40
1.500000000000029
100
AcDbArc
 50
180.0000006733
 51
359.9999993267
  0
ARC
  5
34D
330
1F
100
AcDbEntity
  8
0
  6
Continuous
 62
     7
370
    15
100
AcDbCircle
 10
101.0
 20
79.0003406256
 30
0.0
 40
1.500000000000029
100
AcDbArc
 50
0.0000006733
 51
179.9999993267
  0
ARC
  5
34E
330
1F
100
AcDbEntity
  8
0
  6
Continuous
 62
     7
370
    15
100
AcDbCircle
 10
101.0
 20
74.0003407339
 30
0.0
 40
1.500000000000029
100
AcDbArc
 50
180.0000006733
 51
359.9999993267
  0
ARC
  5
34F
330
1F
100
AcDbEntity
  8
0
  6
Continuous
 62
     7
370
    15
100
AcDbCircle
 10
101.0
 20
94.0003404066
 30
0.0
 40
1.500000000000014
100
AcDbArc
 50
0.0000006733
 51
179.9999993267
  0
ARC
  5
350
330
1F
100
AcDbEntity
  8
0
  6
Continuous
 62
     7
370
    15
100
AcDbCircle
 10
101.0
 20
89.0003405148
 30
0.0
 40
1.5
100
AcDbArc
 50
180.0000006733
 51
359.9999993267
  0
ARC
  5
351
330
1F
100
AcDbEntity
  8
0
  6
Continuous
 62
     7
370
    15
100
AcDbCircle
 10
101.0
 20
109.0003401875
 30
0.0
 40
1.500000000000014
100
AcDbArc
 50
0.0000006733
 51
179.9999993267
  0
ARC
  5
352
330
1F
100
AcDbEntity
  8
0
  6
Continuous
 62
     7
370
    15
100
AcDbCircle
 10
101.0
 20
104.0003402958
 30
0.0
 40
1.5
100
AcDbArc
 50
180.0000006733
 51
359.9999993267
  0
ARC
  5
353
330
1F
100
AcDbEntity
  8
0
  6
Continuous
 62
     7
370
    15
100
AcDbCircle
 10
101.0
 20
124.0003399685
 30
0.0
 40
1.5
100
AcDbArc
 50
0.0000006733
 51
179.9999993267
  0
ARC
  5
354
330
1F
100
AcDbEntity
  8
0
  6
Continuous
 62
     7
370
    15
100
AcDbCircle
 10
101.0
 20
119.0003400767
 30
0.0
 40
1.5
100
AcDbArc
 50
180.0000006733
 51
359.9999993267
  0
ARC
  5
355
330
1F
100
AcDbEntity
  8
0
  6
Continuous
 62
     7
370
    15
100
AcDbCircle
 10
101.0
 20
139.0003397494
 30
0.0
 40
1.5
100
AcDbArc
 50
0.0000006733
 51
179.9999993267
  0
ARC
  5
356
330
1F
100
AcDbEntity
  8
0
  6
Continuous
 62
     7
370
    15
100
AcDbCircle
 10
101.0
 20
134.0003398577
 30
0.0
 40
1.5
100
AcDbArc
 50
180.0000006733
 51
359.9999993267
  0
ARC
  5
357
330
1F
100
AcDbEntity
  8
0
  6
Continuous
 62
     7
370
    15
100
AcDbCircle
 10
101.0
 20
154.0003395304
 30
0.0
 40
1.500000000000014
100
AcDbArc
 50
0.0000006733
 51
179.9999993267
  0
ARC
  5
358
330
1F
100
AcDbEntity
  8
0
  6
Continuous
 62
     7
370
    15
100
AcDbCircle
 10
101.0
 20
149.0003396386
 30
0.0
 40
1.500000000000014
100
AcDbArc
 50
180.0000006733
 51
359.9999993267
  0
ARC
  5
359
330
1F
100
AcDbEntity
  8
0
  6
Continuous
 62
     7
370
    15
100
AcDbCircle
 10
91.0
 20
79.0003406256
 30
0.0
 40
1.5
100
AcDbArc
 50
0.0000006733
 51
179.9999993267
  0
ARC
  5
35A
330
1F
100
AcDbEntity
  8
0
  6
Continuous
 62
     7
370
    15
100
AcDbCircle
 10
91.0
 20
74.0003407339
 30
0.0
 40
1.5
100
AcDbArc
 50
180.0000006733
 51
359.9999993267
  0
ARC
  5
35B
330
1F
100
AcDbEntity
  8
0
  6
Continuous
 62
     7
370
    15
100
AcDbCircle
 10
91.0
 20
94.0003404066
 30
0.0
 40
1.5
100
AcDbArc
 50
0.0000006733
 51
179.9999993267
  0
ARC
  5
35C
330
1F
100
AcDbEntity
  8
0
  6
Continuous
 62
     7
370
    15
100
AcDbCircle
 10
91.0
 20
89.0003405148
 30
0.0
 40
1.5
100
AcDbArc
 50
180.0000006733
 51
359.9999993267
  0
ARC
  5
35D
330
1F
100
AcDbEntity
  8
0
  6
Continuous
 62
     7
370
    15
100
AcDbCircle
 10
91.0
 20
109.0003401875
 30
0.0
 40
1.500000000000014
100
AcDbArc
 50
0.0000006733
 51
179.9999993267
  0
ARC
  5
35E
330
1F
100
AcDbEntity
  8
0
  6
Continuous
 62
     7
370
    15
100
AcDbCircle
 10
91.0
 20
104.0003402958
 30
0.0
 40
1.5
100
AcDbArc
 50
180.0000006733
 51
359.9999993267
  0
ARC
  5
35F
330
1F
100
AcDbEntity
  8
0
  6
Continuous
 62
     7
370
    15
100
AcDbCircle
 10
91.0
 20
124.0003399685
 30
0.0
 40
1.5
100
AcDbArc
 50
0.0000006733
 51
179.9999993267
  0
ARC
  5
360
330
1F
100
AcDbEntity
  8
0
  6
Continuous
 62
     7
370
    15
100
AcDbCircle
 10
91.0
 20
119.0003400767
 30
0.0
 40
1.5
100
AcDbArc
 50
180.0000006733
 51
359.9999993267
  0
ARC
  5
361
330
1F
100
AcDbEntity
  8
0
  6
Continuous
 62
     7
370
    15
100
AcDbCircle
 10
91.0
 20
139.0003397494
 30
0.0
 40
1.5
100
AcDbArc
 50
0.0000006733
 51
179.9999993267
  0
ARC
  5
362
330
1F
100
AcDbEntity
  8
0
  6
Continuous
 62
     7
370
    15
100
AcDbCircle
 10
91.0
 20
134.0003398577
 30
0.0
 40
1.5
100
AcDbArc
 50
180.0000006733
 51
359.9999993267
  0
ARC
  5
363
330
1F
100
AcDbEntity
  8
0
  6
Continuous
 62
     7
370
    15
100
AcDbCircle
 10
91.0
 20
154.0003395304
 30
0.0
 40
1.5
100
AcDbArc
 50
0.0000006733
 51
179.9999993267
  0
ARC
  5
364
330
1F
100
AcDbEntity
  8
0
  6
Continuous
 62
     7
370
    15
100
AcDbCircle
 10
91.0
 20
149.0003396386
 30
0.0
 40
1.5
100
AcDbArc
 50
180.0000006733
 51
359.9999993267
  0
ARC
  5
365
330
1F
100
AcDbEntity
  8
0
  6
Continuous
 62
     7
370
    15
100
AcDbCircle
 10
0.9999999927
 20
0.9999999927
 30
0.0
 40
0.9999999926984349
100
AcDbArc
 50
180.0000004184
 51
270.0000004184
  0
ARC
  5
366
330
1F
100
AcDbEntity
  8
0
  6
Continuous
 62
     7
370
    15
100
AcDbCircle
 10
191.0000000073
 20
0.9999999927
 30
0.0
 40
0.999999992698463
100
AcDbArc
 50
269.9999995817
 51
359.9999995817
  0
ARC
  5
367
330
1F
100
AcDbEntity
  8
0
  6
Continuous
 62
     7
370
    15
100
AcDbCircle
 10
186.0
 20
5.9999998912
 30
0.0
 40
2.0
100
AcDbArc
 50
0.0000006068
 51
179.9999993932
  0
ARC
  5
368
330
1F
100
AcDbEntity
  8
0
  6
Continuous
 62
     7
370
    15
100
AcDbCircle
 10
6.0
 20
5.9999998912
 30
0.0
 40
2.000000000000003
100
AcDbArc
 50
0.0000006068
 51
179.9999993932
  0
ARC
  5
369
330
1F
100
AcDbEntity
  8
0
  6
Continuous
 62
     7
370
    15
100
AcDbCircle
 10
167.499999989
 20
9.999999843
 30
0.0
 40
1.499999989047637
100
AcDbArc
 50
89.9999995817
 51
179.9999995817
  0
ARC
  5
36A
330
1F
100
AcDbEntity
  8
0
  6
Continuous
 62
     7
370
    15
100
AcDbCircle
 10
112.500000011
 20
9.999999843
 30
0.0
 40
1.499999989047614
100
AcDbArc
 50
0.0000004183
 51
90.0000004183
  0
ARC
  5
36B
330
1F
100
AcDbEntity
  8
0
  6
Continuous
 62
     7
370
    15
100
AcDbCircle
 10
52.500000011
 20
9.999999843
 30
0.0
 40
1.499999989047623
100
AcDbArc
 50
0.0000004183
 51
90.0000004183
  0
ARC
  5
36C
330
1F
100
AcDbEntity
  8
0
  6
Continuous
 62
     7
370
    15
100
AcDbCircle
 10
172.500000011
 20
9.999999843
 30
0.0
 40
1.499999989047637
100
AcDbArc
 50
0.0000004183
 51
90.0000004184
  0
ARC
  5
36D
330
1F
100
AcDbEntity
  8
0
  6
Continuous
 62
     7
370
    15
100
AcDbCircle
 10
142.500000011
 20
9.999999843
 30
0.0
 40
1.499999989047637
100
AcDbArc
 50
0.0000004183
 51
90.0000004184
  0
ARC
  5
36E
330
1F
100
AcDbEntity
  8
0
  6
Continuous
 62
     7
370
    15
100
AcDbCircle
 10
17.499999989
 20
9.999999843
 30
0.0
 40
1.499999989047634
100
AcDbArc
 50
89.9999995817
 51
179.9999995817
  0
ARC
  5
36F
330
1F
100
AcDbEntity
  8
0
  6
Continuous
 62
     7
370
    15
100
AcDbCircle
 10
82.500000011
 20
9.999999843
 30
0.0
 40
1.499999989047614
100
AcDbArc
 50
0.0000004183
 51
90.0000004183
  0
ARC
  5
370
330
1F
100
AcDbEntity
  8
0
  6
Continuous
 62
     7
370
    15
100
AcDbCircle
 10
22.500000011
 20
9.999999843
 30
0.0
 40
1.499999989047634
100
AcDbArc
 50
0.0000004183
 51
90.0000004183
  0
ARC
  5
371
330
1F
100
AcDbEntity
  8
0
  6
Continuous
 62
     7
370
    15
100
AcDbCircle
 10
77.499999989
 20
9.999999843
 30
0.0
 40
1.499999989047623
100
AcDbArc
 50
89.9999995816
 51
179.9999995817
  0
ARC
  5
372
330
1F
100
AcDbEntity
  8
0
  6
Continuous
 62
     7
370
    15
100
AcDbCircle
 10
47.499999989
 20
9.999999843
 30
0.0
 40
1.499999989047632
100
AcDbArc
 50
89.9999995817
 51
179.9999995817
  0
ARC
  5
373
330
1F
100
AcDbEntity
  8
0
  6
Continuous
 62
     7
370
    15
100
AcDbCircle
 10
137.499999989
 20
9.999999843
 30
0.0
 40
1.499999989047637
100
AcDbArc
 50
89.9999995817
 51
179.9999995817
  0
ARC
  5
374
330
1F
100
AcDbEntity
  8
0
  6
Continuous
 62
     7
370
    15
100
AcDbCircle
 10
107.499999989
 20
9.999999843
 30
0.0
 40
1.499999989047623
100
AcDbArc
 50
89.9999995816
 51
179.9999995817
  0
ARC
  5
375
330
1F
100
AcDbEntity
  8
0
  6
Continuous
 62
     7
370
    15
100
AcDbCircle
 10
30.0
 20
14.9999997633
 30
0.0
 40
1.600000000000005
100
AcDbArc
 50
0.0000006332
 51
179.9999993668
  0
ARC
  5
376
330
1F
100
AcDbEntity
  8
0
  6
Continuous
 62
     7
370
    15
100
AcDbCircle
 10
172.500000011
 20
19.999999697
 30
0.0
 40
1.499999989047637
100
AcDbArc
 50
0.0000004183
 51
90.0000004183
  0
ARC
  5
377
330
1F
100
AcDbEntity
  8
0
  6
Continuous
 62
     7
370
    15
100
AcDbCircle
 10
142.500000011
 20
19.999999697
 30
0.0
 40
1.499999989047694
100
AcDbArc
 50
0.0000004184
 51
90.0000004183
  0
ARC
  5
378
330
1F
100
AcDbEntity
  8
0
  6
Continuous
 62
     7
370
    15
100
AcDbCircle
 10
82.500000011
 20
19.999999697
 30
0.0
 40
1.499999989047623
100
AcDbArc
 50
0.0000004183
 51
90.0000004183
  0
ARC
  5
379
330
1F
100
AcDbEntity
  8
0
  6
Continuous
 62
     7
370
    15
100
AcDbCircle
 10
22.500000011
 20
19.999999697
 30
0.0
 40
1.499999989047659
100
AcDbArc
 50
0.0000004183
 51
90.0000004183
  0
ARC
  5
37A
330
1F
100
AcDbEntity
  8
0
  6
Continuous
 62
     7
370
    15
100
AcDbCircle
 10
137.499999989
 20
19.999999697
 30
0.0
 40
1.499999989047666
100
AcDbArc
 50
89.9999995817
 51
179.9999995817
  0
ARC
  5
37B
330
1F
100
AcDbEntity
  8
0
  6
Continuous
 62
     7
370
    15
100
AcDbCircle
 10
47.499999989
 20
19.999999697
 30
0.0
 40
1.499999989047645
100
AcDbArc
 50
89.9999995817
 51
179.9999995817
  0
ARC
  5
37C
330
1F
100
AcDbEntity
  8
0
  6
Continuous
 62
     7
370
    15
100
AcDbCircle
 10
107.499999989
 20
19.999999697
 30
0.0
 40
1.499999989047623
100
AcDbArc
 50
89.9999995817
 51
179.9999995817
  0
ARC
  5
37D
330
1F
100
AcDbEntity
  8
0
  6
Continuous
 62
     7
370
    15
100
AcDbCircle
 10
77.499999989
 20
19.999999697
 30
0.0
 40
1.499999989047623
100
AcDbArc
 50
89.9999995817
 51
179.9999995817
  0
ARC
  5
37E
330
1F
100
AcDbEntity
  8
0
  6
Continuous
 62
     7
370
    15
100
AcDbCircle
 10
17.499999989
 20
19.999999697
 30
0.0
 40
1.499999989047652
100
AcDbArc
 50
89.9999995817
 51
179.9999995817
  0
ARC
  5
37F
330
1F
100
AcDbEntity
  8
0
  6
Continuous
 62
     7
370
    15
100
AcDbCircle
 10
112.500000011
 20
19.999999697
 30
0.0
 40
1.49999998904763
100
AcDbArc
 50
0.0000004183
 51
90.0000004183
  0
ARC
  5
380
330
1F
100
AcDbEntity
  8
0
  6
Continuous
 62
     7
370
    15
100
AcDbCircle
 10
167.499999989
 20
19.999999697
 30
0.0
 40
1.499999989047666
100
AcDbArc
 50
89.9999995817
 51
179.9999995817
  0
ARC
  5
381
330
1F
100
AcDbEntity
  8
0
  6
Continuous
 62
     7
370
    15
100
AcDbCircle
 10
52.500000011
 20
19.999999697
 30
0.0
 40
1.499999989047652
100
AcDbArc
 50
0.0000004183
 51
90.0000004183
  0
ARC
  5
382
330
1F
100
AcDbEntity
  8
0
  6
Continuous
 62
     7
370
    15
100
AcDbCircle
 10
22.500000011
 20
29.999999551
 30
0.0
 40
1.499999989047645
100
AcDbArc
 50
0.0000004183
 51
90.0000004183
  0
ARC
  5
383
330
1F
100
AcDbEntity
  8
0
  6
Continuous
 62
     7
370
    15
100
AcDbCircle
 10
52.500000011
 20
29.999999551
 30
0.0
 40
1.49999998904763
100
AcDbArc
 50
0.0000004183
 51
90.0000004183
  0
ARC
  5
384
330
1F
100
AcDbEntity
  8
0
  6
Continuous
 62
     7
370
    15
100
AcDbCircle
 10
167.499999989
 20
29.999999551
 30
0.0
 40
1.499999989047666
100
AcDbArc
 50
89.9999995817
 51
179.9999995817
  0
ARC
  5
385
330
1F
100
AcDbEntity
  8
0
  6
Continuous
 62
     7
370
    15
100
AcDbCircle
 10
82.500000011
 20
29.999999551
 30
0.0
 40
1.499999989047595
100
AcDbArc
 50
0.0000004183
 51
90.0000004184
  0
ARC
  5
386
330
1F
100
AcDbEntity
  8
0
  6
Continuous
 62
     7
370
    15
100
AcDbCircle
 10
107.499999989
 20
29.999999551
 30
0.0
 40
1.499999989047627
100
AcDbArc
 50
89.9999995817
 51
179.9999995817
  0
ARC
  5
387
330
1F
100
AcDbEntity
  8
0
  6
Continuous
 62
     7
370
    15
100
AcDbCircle
 10
112.500000011
 20
29.999999551
 30
0.0
 40
1.499999989047595
100
AcDbArc
 50
0.0000004183
 51
90.0000004184
  0
ARC
  5
388
330
1F
100
AcDbEntity
  8
0
  6
Continuous
 62
     7
370
    15
100
AcDbCircle
 10
47.499999989
 20
29.999999551
 30
0.0
 40
1.499999989047637
100
AcDbArc
 50
89.9999995817
 51
179.9999995817
  0
ARC
  5
389
330
1F
100
AcDbEntity
  8
0
  6
Continuous
 62
     7
370
    15
100
AcDbCircle
 10
137.499999989
 20
29.999999551
 30
0.0
 40
1.499999989047652
100
AcDbArc
 50
89.9999995817
 51
179.9999995817
  0
ARC
  5
38A
330
1F
100
AcDbEntity
  8
0
  6
Continuous
 62
     7
370
    15
100
AcDbCircle
 10
142.500000011
 20
29.999999551
 30
0.0
 40
1.499999989047694
100
AcDbArc
 50
0.0000004184
 51
90.0000004183
  0
ARC
  5
38B
330
1F
100
AcDbEntity
  8
0
  6
Continuous
 62
     7
370
    15
100
AcDbCircle
 10
17.499999989
 20
29.999999551
 30
0.0
 40
1.499999989047634
100
AcDbArc
 50
89.9999995817
 51
179.9999995817
  0
ARC
  5
38C
330
1F
100
AcDbEntity
  8
0
  6
Continuous
 62
     7
370
    15
100
AcDbCircle
 10
172.500000011
 20
29.999999551
 30
0.0
 40
1.499999989047694
100
AcDbArc
 50
0.0000004184
 51
90.0000004183
  0
ARC
  5
38D
330
1F
100
AcDbEntity
  8
0
  6
Continuous
 62
     7
370
    15
100
AcDbCircle
 10
77.499999989
 20
29.999999551
 30
0.0
 40
1.499999989047641
100
AcDbArc
 50
89.9999995817
 51
179.9999995817
  0
ARC
  5
38E
330
1F
100
AcDbEntity
  8
0
  6
Continuous
 62
     7
370
    15
100
AcDbCircle
 10
186.0
 20
36.9999994385
 30
0.0
 40
2.0
100
AcDbArc
 50
0.0000006068
 51
179.9999993932
  0
ARC
  5
38F
330
1F
100
AcDbEntity
  8
0
  6
Continuous
 62
     7
370
    15
100
AcDbCircle
 10
6.0
 20
36.9999994385
 30
0.0
 40
2.000000000000002
100
AcDbArc
 50
0.0000006068
 51
179.9999993932
  0
ARC
  5
390
330
1F
100
AcDbEntity
  8
0
  6
Continuous
 62
     7
370
    15
100
AcDbCircle
 10
189.0
 20
49.9999992541
 30
0.0
 40
1.5
100
AcDbArc
 50
0.000000603
 51
179.999999397
  0
ARC
  5
391
330
1F
100
AcDbEntity
  8
0
  6
Continuous
 62
     7
370
    15
100
AcDbCircle
 10
3.0
 20
49.9999992541
 30
0.0
 40
1.500000000000002
100
AcDbArc
 50
0.000000603
 51
179.999999397
  0
ARC
  5
392
330
1F
100
AcDbEntity
  8
0
  6
Continuous
 62
     7
370
    15
100
AcDbCircle
 10
76.0
 20
51.9999992308
 30
0.0
 40
1.000000000000014
100
AcDbArc
 50
0.0000005616
 51
179.9999994384
  0
ARC
  5
393
330
1F
100
AcDbEntity
  8
0
  6
Continuous
 62
     7
370
    15
100
AcDbCircle
 10
116.0
 20
51.9999992289
 30
0.0
 40
1.000000000000014
100
AcDbArc
 50
0.0000006733
 51
179.9999993267
  0
ARC
  5
394
330
1F
100
AcDbEntity
  8
0
  6
Continuous
 62
     7
370
    15
100
AcDbCircle
 10
15.0
 20
51.9999992289
 30
0.0
 40
1.000000000000002
100
AcDbArc
 50
0.0000006733
 51
179.9999993267
  0
ARC
  5
395
330
1F
100
AcDbEntity
  8
0
  6
Continuous
 62
     7
370
    15
100
AcDbCircle
 10
177.0
 20
51.9999992289
 30
0.0
 40
1.0
100
AcDbArc
 50
0.0000006733
 51
179.9999993267
  0
ARC
  5
396
330
1F
100
AcDbEntity
  8
0
  6
Continuous
 62
     7
370
    15
100
AcDbCircle
 10
76.0
 20
61.4999990921
 30
0.0
 40
1.000000000000028
100
AcDbArc
 50
0.0000005616
 51
179.9999994384
  0
ARC
  5
397
330
1F
100
AcDbEntity
  8
0
  6
Continuous
 62
     7
370
    15
100
AcDbCircle
 10
170.0
 20
61.4999990902
 30
0.0
 40
1.0
100
AcDbArc
 50
0.0000006733
 51
179.9999993267
  0
ARC
  5
398
330
1F
100
AcDbEntity
  8
0
  6
Continuous
 62
     7
370
    15
100
AcDbCircle
 10
177.0
 20
61.4999990902
 30
0.0
 40
1.0
100
AcDbArc
 50
0.0000006733
 51
179.9999993267
  0
ARC
  5
399
330
1F
100
AcDbEntity
  8
0
  6
Continuous
 62
     7
370
    15
100
AcDbCircle
 10
15.0
 20
61.4999990902
 30
0.0
 40
1.000000000000002
100
AcDbArc
 50
0.0000006733
 51
179.9999993267
  0
ARC
  5
39A
330
1F
100
AcDbEntity
  8
0
  6
Continuous
 62
     7
370
    15
100
AcDbCircle
 10
116.0
 20
61.4999990902
 30
0.0
 40
1.000000000000014
100
AcDbArc
 50
0.0000006733
 51
179.9999993267
  0
ARC
  5
39B
330
1F
100
AcDbEntity
  8
0
  6
Continuous
 62
     7
370
    15
100
AcDbCircle
 10
22.0
 20
61.4999990902
 30
0.0
 40
1.000000000000007
100
AcDbArc
 50
0.0000006733
 51
179.9999993267
  0
ARC
  5
39C
330
1F
100
AcDbEntity
  8
0
  6
Continuous
 62
     7
370
    15
100
AcDbCircle
 10
3.0
 20
63.9999990496
 30
0.0
 40
1.500000000000002
100
AcDbArc
 50
0.000000603
 51
179.999999397
  0
ARC
  5
39D
330
1F
100
AcDbEntity
  8
0
  6
Continuous
 62
     7
370
    15
100
AcDbCircle
 10
189.0
 20
63.9999990496
 30
0.0
 40
1.5
100
AcDbArc
 50
0.000000603
 51
179.999999397
  0
ARC
  5
39E
330
1F
100
AcDbEntity
  8
0
  6
Continuous
 62
     7
370
    15
100
AcDbCircle
 10
101.0
 20
63.9999990478
 30
0.0
 40
1.500000000000029
100
AcDbArc
 50
0.0000006733
 51
179.9999993267
  0
ARC
  5
39F
330
1F
100
AcDbEntity
  8
0
  6
Continuous
 62
     7
370
    15
100
AcDbCircle
 10
91.0
 20
63.9999990478
 30
0.0
 40
1.5
100
AcDbArc
 50
0.0000006733
 51
179.9999993267
  0
ARC
  5
3A0
330
1F
100
AcDbEntity
  8
0
  6
Continuous
 62
     7
370
    15
100
AcDbCircle
 10
91.0
 20
78.9999988287
 30
0.0
 40
1.5
100
AcDbArc
 50
0.0000006733
 51
179.9999993267
  0
ARC
  5
3A1
330
1F
100
AcDbEntity
  8
0
  6
Continuous
 62
     7
370
    15
100
AcDbCircle
 10
101.0
 20
78.9999988287
 30
0.0
 40
1.500000000000029
100
AcDbArc
 50
0.0000006733
 51
179.9999993267
  0
ARC
  5
3A2
330
1F
100
AcDbEntity
  8
0
  6
Continuous
 62
     7
370
    15
100
AcDbCircle
 10
109.5
 20
85.9999987343
 30
0.0
 40
1.000000000000014
100
AcDbArc
 50
0.0000005616
 51
179.9999994384
  0
ARC
  5
3A3
330
1F
100
AcDbEntity
  8
0
  6
Continuous
 62
     7
370
    15
100
AcDbCircle
 10
33.5
 20
85.9999987343
 30
0.0
 40
1.0
100
AcDbArc
 50
0.0000005616
 51
179.9999994384
  0
ARC
  5
3A4
330
1F
100
AcDbEntity
  8
0
  6
Continuous
 62
     7
370
    15
100
AcDbCircle
 10
82.5
 20
85.9999987343
 30
0.0
 40
1.0
100
AcDbArc
 50
0.0000005616
 51
179.9999994384
  0
ARC
  5
3A5
330
1F
100
AcDbEntity
  8
0
  6
Continuous
 62
     7
370
    15
100
AcDbCircle
 10
158.5
 20
85.9999987324
 30
0.0
 40
1.0
100
AcDbArc
 50
0.0000006733
 51
179.9999993267
  0
ARC
  5
3A6
330
1F
100
AcDbEntity
  8
0
  6
Continuous
 62
     7
370
    15
100
AcDbCircle
 10
91.0
 20
93.9999986097
 30
0.0
 40
1.5
100
AcDbArc
 50
0.0000006733
 51
179.9999993267
  0
ARC
  5
3A7
330
1F
100
AcDbEntity
  8
0
  6
Continuous
 62
     7
370
    15
100
AcDbCircle
 10
101.0
 20
93.9999986097
 30
0.0
 40
1.500000000000014
100
AcDbArc
 50
0.0000006733
 51
179.9999993267
  0
ARC
  5
3A8
330
1F
100
AcDbEntity
  8
0
  6
Continuous
 62
     7
370
    15
100
AcDbCircle
 10
91.0
 20
108.9999983906
 30
0.0
 40
1.5
100
AcDbArc
 50
0.0000006733
 51
179.9999993267
  0
ARC
  5
3A9
330
1F
100
AcDbEntity
  8
0
  6
Continuous
 62
     7
370
    15
100
AcDbCircle
 10
101.0
 20
108.9999983906
 30
0.0
 40
1.5
100
AcDbArc
 50
0.0000006733
 51
179.9999993267
  0
ARC
  5
3AA
330
1F
100
AcDbEntity
  8
0
  6
Continuous
 62
     7
370
    15
100
AcDbCircle
 10
101.0
 20
123.9999981716
 30
0.0
 40
1.5
100
AcDbArc
 50
0.0000006733
 51
179.9999993267
  0
ARC
  5
3AB
330
1F
100
AcDbEntity
  8
0
  6
Continuous
 62
     7
370
    15
100
AcDbCircle
 10
91.0
 20
123.9999981716
 30
0.0
 40
1.5
100
AcDbArc
 50
0.0000006733
 51
179.9999993267
  0
ARC
  5
3AC
330
1F
100
AcDbEntity
  8
0
  6
Continuous
 62
     7
370
    15
100
AcDbCircle
 10
91.0
 20
138.9999979525
 30
0.0
 40
1.5
100
AcDbArc
 50
0.0000006733
 51
179.9999993267
  0
ARC
  5
3AD
330
1F
100
AcDbEntity
  8
0
  6
Continuous
 62
     7
370
    15
100
AcDbCircle
 10
101.0
 20
138.9999979525
 30
0.0
 40
1.5
100
AcDbArc
 50
0.0000006733
 51
179.9999993267
  0
ARC
  5
3AE
330
1F
100
AcDbEntity
  8
0
  6
Continuous
 62
     7
370
    15
100
AcDbCircle
 10
33.5
 20
143.9999978854
 30
0.0
 40
1.0
100
AcDbArc
 50
0.0000006733
 51
179.9999993267
  0
ARC
  5
3AF
330
1F
100
AcDbEntity
  8
0
  6
Continuous
 62
     7
370
    15
100
AcDbCircle
 10
82.5
 20
143.9999978854
 30
0.0
 40
1.0
100
AcDbArc
 50
0.0000006733
 51
179.9999993267
  0
ARC
  5
3B0
330
1F
100
AcDbEntity
  8
0
  6
Continuous
 62
     7
370
    15
100
AcDbCircle
 10
109.5
 20
143.9999978873
 30
0.0
 40
1.0
100
AcDbArc
 50
0.0000005616
 51
179.9999994384
  0
ARC
  5
3B1
330
1F
100
AcDbEntity
  8
0
  6
Continuous
 62
     7
370
    15
100
AcDbCircle
 10
158.5
 20
143.9999978854
 30
0.0
 40
1.000000000000028
100
AcDbArc
 50
0.0000006733
 51
179.9999993267
  0
ARC
  5
3B2
330
1F
100
AcDbEntity
  8
0
  6
Continuous
 62
     7
370
    15
100
AcDbCircle
 10
177.0
 20
148.9999978124
 30
0.0
 40
1.0
100
AcDbArc
 50
0.0000006733
 51
179.9999993267
  0
ARC
  5
3B3
330
1F
100
AcDbEntity
  8
0
  6
Continuous
 62
     7
370
    15
100
AcDbCircle
 10
76.0
 20
148.9999978143
 30
0.0
 40
1.000000000000014
100
AcDbArc
 50
0.0000005616
 51
179.9999994384
  0
ARC
  5
3B4
330
1F
100
AcDbEntity
  8
0
  6
Continuous
 62
     7
370
    15
100
AcDbCircle
 10
116.0
 20
148.9999978124
 30
0.0
 40
1.000000000000014
100
AcDbArc
 50
0.0000006733
 51
179.9999993267
  0
ARC
  5
3B5
330
1F
100
AcDbEntity
  8
0
  6
Continuous
 62
     7
370
    15
100
AcDbCircle
 10
15.0
 20
148.9999978124
 30
0.0
 40
1.000000000000002
100
AcDbArc
 50
0.0000006733
 51
179.9999993267
  0
ARC
  5
3B6
330
1F
100
AcDbEntity
  8
0
  6
Continuous
 62
     7
370
    15
100
AcDbCircle
 10
22.0
 20
148.9999978124
 30
0.0
 40
1.000000000000007
100
AcDbArc
 50
0.0000006733
 51
179.9999993267
  0
ARC
  5
3B7
330
1F
100
AcDbEntity
  8
0
  6
Continuous
 62
     7
370
    15
100
AcDbCircle
 10
170.0
 20
148.9999978124
 30
0.0
 40
1.000000000000028
100
AcDbArc
 50
0.0000006733
 51
179.9999993267
  0
ARC
  5
3B8
330
1F
100
AcDbEntity
  8
0
  6
Continuous
 62
     7
370
    15
100
AcDbCircle
 10
91.0
 20
153.9999977335
 30
0.0
 40
1.5
100
AcDbArc
 50
0.0000006733
 51
179.9999993267
  0
ARC
  5
3B9
330
1F
100
AcDbEntity
  8
0
  6
Continuous
 62
     7
370
    15
100
AcDbCircle
 10
101.0
 20
153.9999977335
 30
0.0
 40
1.500000000000014
100
AcDbArc
 50
0.0000006733
 51
179.9999993267
  0
ARC
  5
3BA
330
1F
100
AcDbEntity
  8
0
  6
Continuous
 62
     7
370
    15
100
AcDbCircle
 10
189.0
 20
174.9999974287
 30
0.0
 40
1.5
100
AcDbArc
 50
0.000000603
 51
179.999999397
  0
ARC
  5
3BB
330
1F
100
AcDbEntity
  8
0
  6
Continuous
 62
     7
370
    15
100
AcDbCircle
 10
3.0
 20
174.9999974287
 30
0.0
 40
1.500000000000002
100
AcDbArc
 50
0.000000603
 51
179.999999397
  0
ARC
  5
3BC
330
1F
100
AcDbEntity
  8
0
  6
Continuous
 62
     7
370
    15
100
AcDbCircle
 10
30.0
 20
176.9999973976
 30
0.0
 40
1.599999999999991
100
AcDbArc
 50
0.0000006332
 51
179.9999993668
  0
ARC
  5
3BD
330
1F
100
AcDbEntity
  8
0
  6
Continuous
 62
     7
370
    15
100
AcDbCircle
 10
162.0
 20
176.9999973999
 30
0.0
 40
1.599999999999995
100
AcDbArc
 50
0.0000005493
 51
179.9999994507
  0
ARC
  5
3BE
330
1F
100
AcDbEntity
  8
0
  6
Continuous
 62
     7
370
    15
100
AcDbCircle
 10
189.0
 20
188.9999972242
 30
0.0
 40
1.5
100
AcDbArc
 50
0.000000603
 51
179.999999397
  0
ARC
  5
3BF
330
1F
100
AcDbEntity
  8
0
  6
Continuous
 62
     7
370
    15
100
AcDbCircle
 10
3.0
 20
188.9999972242
 30
0.0
 40
1.500000000000002
100
AcDbArc
 50
0.000000603
 51
179.999999397
  0
ARC
  5
3C0
330
1F
100
AcDbEntity
  8
0
  6
Continuous
 62
     7
370
    15
100
AcDbCircle
 10
99.0
 20
187.9999972334
 30
0.0
 40
2.0
100
AcDbArc
 50
0.0000006068
 51
179.9999993932
  0
ARC
  5
3C1
330
1F
100
AcDbEntity
  8
0
  6
Continuous
 62
     7
370
    15
100
AcDbCircle
 10
51.0
 20
187.9999972334
 30
0.0
 40
2.000000000000014
100
AcDbArc
 50
0.0000006068
 51
179.9999993932
  0
ARC
  5
3C2
330
1F
100
AcDbEntity
  8
0
  6
Continuous
 62
     7
370
    15
100
AcDbCircle
 10
15.0
 20
187.9999972334
 30
0.0
 40
2.000000000000002
100
AcDbArc
 50
0.0000006068
 51
179.9999993932
  0
ARC
  5
3C3
330
1F
100
AcDbEntity
  8
0
  6
Continuous
 62
     7
370
    15
100
AcDbCircle
 10
57.0
 20
187.9999972334
 30
0.0
 40
2.000000000000014
100
AcDbArc
 50
0.0000006068
 51
179.9999993932
  0
ARC
  5
3C4
330
1F
100
AcDbEntity
  8
0
  6
Continuous
 62
     7
370
    15
100
AcDbCircle
 10
177.0
 20
187.9999972334
 30
0.0
 40
2.0
100
AcDbArc
 50
0.0000006068
 51
179.9999993932
  0
ARC
  5
3C5
330
1F
100
AcDbEntity
  8
0
  6
Continuous
 62
     7
370
    15
100
AcDbCircle
 10
63.0
 20
187.9999972334
 30
0.0
 40
2.0
100
AcDbArc
 50
0.0000006068
 51
179.9999993932
  0
ARC
  5
3C6
330
1F
100
AcDbEntity
  8
0
  6
Continuous
 62
     7
370
    15
100
AcDbCircle
 10
153.0
 20
187.9999972334
 30
0.0
 40
2.0
100
AcDbArc
 50
0.0000006068
 51
179.9999993932
  0
ARC
  5
3C7
330
1F
100
AcDbEntity
  8
0
  6
Continuous
 62
     7
370
    15
100
AcDbCircle
 10
183.0
 20
187.9999972334
 30
0.0
 40
2.0
100
AcDbArc
 50
0.0000006068
 51
179.9999993932
  0
ARC
  5
3C8
330
1F
100
AcDbEntity
  8
0
  6
Continuous
 62
     7
370
    15
100
AcDbCircle
 10
171.0
 20
187.9999972334
 30
0.0
 40
2.000000000000057
100
AcDbArc
 50
0.0000006068
 51
179.9999993932
  0
ARC
  5
3C9
330
1F
100
AcDbEntity
  8
0
  6
Continuous
 62
     7
370
    15
100
AcDbCircle
 10
69.0
 20
187.9999972334
 30
0.0
 40
2.000000000000014
100
AcDbArc
 50
0.0000006068
 51
179.9999993932
  0
ARC
  5
3CA
330
1F
100
AcDbEntity
  8
0
  6
Continuous
 62
     7
370
    15
100
AcDbCircle
 10
75.0
 20
187.9999972334
 30
0.0
 40
2.0
100
AcDbArc
 50
0.0000006068
 51
179.9999993932
  0
ARC
  5
3CB
330
1F
100
AcDbEntity
  8
0
  6
Continuous
 62
     7
370
    15
100
AcDbCircle
 10
9.0
 20
187.9999972334
 30
0.0
 40
1.999999999999997
100
AcDbArc
 50
0.0000006068
 51
179.9999993932
  0
ARC
  5
3CC
330
1F
100
AcDbEntity
  8
0
  6
Continuous
 62
     7
370
    15
100
AcDbCircle
 10
21.0
 20
187.9999972334
 30
0.0
 40
1.999999999999996
100
AcDbArc
 50
0.0000006068
 51
179.9999993932
  0
ARC
  5
3CD
330
1F
100
AcDbEntity
  8
0
  6
Continuous
 62
     7
370
    15
100
AcDbCircle
 10
87.0
 20
187.9999972334
 30
0.0
 40
2.000000000000014
100
AcDbArc
 50
0.0000006068
 51
179.9999993932
  0
ARC
  5
3CE
330
1F
100
AcDbEntity
  8
0
  6
Continuous
 62
     7
370
    15
100
AcDbCircle
 10
129.0
 20
187.9999972334
 30
0.0
 40
2.0
100
AcDbArc
 50
0.0000006068
 51
179.9999993932
  0
ARC
  5
3CF
330
1F
100
AcDbEntity
  8
0
  6
Continuous
 62
     7
370
    15
100
AcDbCircle
 10
105.0
 20
187.9999972334
 30
0.0
 40
2.0
100
AcDbArc
 50
0.0000006068
 51
179.9999993932
  0
ARC
  5
3D0
330
1F
100
AcDbEntity
  8
0
  6
Continuous
 62
     7
370
    15
100
AcDbCircle
 10
39.0
 20
187.9999972334
 30
0.0
 40
2.0
100
AcDbArc
 50
0.0000006068
 51
179.9999993932
  0
ARC
  5
3D1
330
1F
100
AcDbEntity
  8
0
  6
Continuous
 62
     7
370
    15
100
AcDbCircle
 10
81.0
 20
187.9999972334
 30
0.0
 40
2.0
100
AcDbArc
 50
0.0000006068
 51
179.9999993932
  0
ARC
  5
3D2
330
1F
100
AcDbEntity
  8
0
  6
Continuous
 62
     7
370
    15
100
AcDbCircle
 10
135.0
 20
187.9999972334
 30
0.0
 40
2.0
100
AcDbArc
 50
0.0000006068
 51
179.9999993932
  0
ARC
  5
3D3
330
1F
100
AcDbEntity
  8
0
  6
Continuous
 62
     7
370
    15
100
AcDbCircle
 10
111.0
 20
187.9999972334
 30
0.0
 40
2.0
100
AcDbArc
 50
0.0000006068
 51
179.9999993932
  0
ARC
  5
3D4
330
1F
100
AcDbEntity
  8
0
  6
Continuous
 62
     7
370
    15
100
AcDbCircle
 10
45.0
 20
187.9999972334
 30
0.0
 40
2.000000000000007
100
AcDbArc
 50
0.0000006068
 51
179.9999993932
  0
ARC
  5
3D5
330
1F
100
AcDbEntity
  8
0
  6
Continuous
 62
     7
370
    15
100
AcDbCircle
 10
93.0
 20
187.9999972334
 30
0.0
 40
2.0
100
AcDbArc
 50
0.0000006068
 51
179.9999993932
  0
ARC
  5
3D6
330
1F
100
AcDbEntity
  8
0
  6
Continuous
 62
     7
370
    15
100
AcDbCircle
 10
141.0
 20
187.9999972334
 30
0.0
 40
2.000000000000057
100
AcDbArc
 50
0.0000006068
 51
179.9999993932
  0
ARC
  5
3D7
330
1F
100
AcDbEntity
  8
0
  6
Continuous
 62
     7
370
    15
100
AcDbCircle
 10
117.0
 20
187.9999972334
 30
0.0
 40
2.000000000000014
100
AcDbArc
 50
0.0000006068
 51
179.9999993932
  0
ARC
  5
3D8
330
1F
100
AcDbEntity
  8
0
  6
Continuous
 62
     7
370
    15
100
AcDbCircle
 10
147.0
 20
187.9999972334
 30
0.0
 40
2.0
100
AcDbArc
 50
0.0000006068
 51
179.9999993932
  0
ARC
  5
3D9
330
1F
100
AcDbEntity
  8
0
  6
Continuous
 62
     7
370
    15
100
AcDbCircle
 10
123.0
 20
187.9999972334
 30
0.0
 40
2.0
100
AcDbArc
 50
0.0000006068
 51
179.9999993932
  0
ENDSEC
  0
SECTION
  2
OBJECTS
  0
DICTIONARY
  5
C
330
0
100
AcDbDictionary
281
     1
  3
ACAD_GROUP
350
D
  3
ACAD_LAYOUT
350
1A
  3
ACAD_MLINESTYLE
350
17
  3
ACAD_PLOTSETTINGS
350
19
  3
ACAD_PLOTSTYLENAME
350
E
  3
ACAD_SCALELIST
350
47
  0
DICTIONARY
  5
D
102
{ACAD_REACTORS
330
C
102
}
330
C
100
AcDbDictionary
281
     1
  0
DICTIONARY
  5
1A
102
{ACAD_REACTORS
330
C
102
}
330
C
100
AcDbDictionary
281
     1
  3
Layout1
350
1E
  3
Layout2
350
26
  3
Model
350
22
  0
DICTIONARY
  5
17
102
{ACAD_REACTORS
330
C
102
}
330
C
100
AcDbDictionary
281
     1
  3
Standard
350
18
  0
DICTIONARY
  5
19
102
{ACAD_REACTORS
330
C
102
}
330
C
100
AcDbDictionary
281
     1
  0
ACDBDICTIONARYWDFLT
  5
E
102
{ACAD_REACTORS
330
C
102
}
330
C
100
AcDbDictionary
281
     1
  3
Normal
350
F
100
AcDbDictionaryWithDefault
340
F
  0
DICTIONARY
  5
47
102
{ACAD_REACTORS
330
C
102
}
330
C
100
AcDbDictionary
281
     1
  3
A0
350
48
  3
A1
350
49
  3
A2
350
4A
  3
A3
350
4B
  3
A4
350
4C
  3
A5
350
4D
  3
A6
350
4E
  3
A7
350
4F
  3
A8
350
50
  3
A9
350
51
  3
B0
350
52
  3
B1
350
53
  3
B2
350
54
  3
B3
350
55
  3
B4
350
56
  3
B5
350
57
  3
B6
350
58
  3
B7
350
59
  3
B8
350
5A
  3
B9
350
5B
  3
C0
350
5C
  3
C1
350
5D
  3
C2
350
5E
  3
C3
350
5F
  3
C4
350
60
  3
C5
350
61
  3
C6
350
62
  3
C7
350
63
  3
C8
350
64
  3
C9
350
65
  3
D0
350
66
  3
D1
350
67
  3
D2
350
68
  0
LAYOUT
  5
1E
102
{ACAD_REACTORS
330
1A
102
}
330
1A
100
AcDbPlotSettings
  1

  2
none_device
  4

  6

 40
0.0
 41
0.0
 42
0.0
 43
0.0
 44
0.0
 45
0.0
 46
0.0
 47
0.0
 48
0.0
 49
0.0
140
0.0
141
0.0
142
1.0
143
1.0
 70
   688
 72
     1
 73
     0
 74
     5
  7

 75
    16
147
1.0
148
0.0
149
0.0
100
AcDbLayout
  1
Layout1
 70
     1
 71
     1
 10
0.0
 20
0.0
 11
420.0
 21
297.0
 12
0.0
 22
0.0
 32
0.0
 14
1.0000000000E+20
 24
1.0000000000E+20
 34
1.0000000000E+20
 15
-1.0000000000E+20
 25
-1.0000000000E+20
 35
-1.0000000000E+20
146
0.0
 13
0.0
 23
0.0
 33
0.0
 16
1.0
 26
0.0
 36
0.0
 17
0.0
 27
1.0
 37
0.0
 76
     0
330
1B
  0
LAYOUT
  5
26
102
{ACAD_REACTORS
330
1A
102
}
330
1A
100
AcDbPlotSettings
  1

  2
none_device
  4

  6

 40
0.0
 41
0.0
 42
0.0
 43
0.0
 44
0.0
 45
0.0
 46
0.0
 47
0.0
 48
0.0
 49
0.0
140
0.0
141
0.0
142
1.0
143
1.0
 70
   688
 72
     1
 73
     0
 74
     5
  7

 75
    16
147
1.0
148
0.0
149
0.0
100
AcDbLayout
  1
Layout2
 70
     1
 71
     2
 10
0.0
 20
0.0
 11
0.0
 21
0.0
 12
0.0
 22
0.0
 32
0.0
 14
0.0
 24
0.0
 34
0.0
 15
0.0
 25
0.0
 35
0.0
146
0.0
 13
0.0
 23
0.0
 33
0.0
 16
1.0
 26
0.0
 36
0.0
 17
0.0
 27
1.0
 37
0.0
 76
     0
330
23
  0
LAYOUT
  5
22
102
{ACAD_REACTORS
330
1A
102
}
330
1A
100
AcDbPlotSettings
  1

  2
none_device
  4
ANSI_A_(11.00_x_8.50_Inches)
  6

 40
6.35
 41
19.05
 42
6.35000508
 43
19.05000254
 44
279.4
 45
215.9
 46
26.479686149
 47
-17.97050127
 48
0.0
 49
0.0
140
0.0
141
0.0
142
0.0438280476
143
1.0
 70
  1696
 72
     0
 73
     0
 74
     0
  7

 75
     0
147
0.0179189148
148
-1300.4909072572
149
0.0
100
AcDbLayout
  1
Model
 70
     1
 71
     0
 10
0.0
 20
0.0
 11
420.0
 21
297.0
 12
0.0
 22
0.0
 32
0.0
 14
0.0
 24
0.0
 34
0.0
 15
192.0
 25
192.0003389931
 35
0.0
146
0.0
 13
0.0
 23
0.0
 33
0.0
 16
1.0
 26
0.0
 36
0.0
 17
0.0
 27
1.0
 37
0.0
 76
     0
330
1F
331
29
  0
MLINESTYLE
  5
18
102
{ACAD_REACTORS
330
17
102
}
330
17
100
AcDbMlineStyle
  2
Standard
 70
     0
  3

 62
   256
 51
90.0
 52
90.0
 71
     2
 49
0.5
 62
   256
  6
BYLAYER
 49
-0.5
 62
   256
  6
BYLAYER
  0
ACDBPLACEHOLDER
  5
F
102
{ACAD_REACTORS
330
E
102
}
330
E
  0
SCALE
  5
48
102
{ACAD_REACTORS
330
47
102
}
330
47
100
AcDbScale
 70
     0
300
1:1
140
1.0
141
1.0
290
     1
  0
SCALE
  5
49
102
{ACAD_REACTORS
330
47
102
}
330
47
100
AcDbScale
 70
     0
300
1:2
140
1.0
141
2.0
290
     0
  0
SCALE
  5
4A
102
{ACAD_REACTORS
330
47
102
}
330
47
100
AcDbScale
 70
     0
300
1:4
140
1.0
141
4.0
290
     0
  0
SCALE
  5
4B
102
{ACAD_REACTORS
330
47
102
}
330
47
100
AcDbScale
 70
     0
300
1:5
140
1.0
141
5.0
290
     0
  0
SCALE
  5
4C
102
{ACAD_REACTORS
330
47
102
}
330
47
100
AcDbScale
 70
     0
300
1:8
140
1.0
141
8.0
290
     0
  0
SCALE
  5
4D
102
{ACAD_REACTORS
330
47
102
}
330
47
100
AcDbScale
 70
     0
300
1:10
140
1.0
141
10.0
290
     0
  0
SCALE
  5
4E
102
{ACAD_REACTORS
330
47
102
}
330
47
100
AcDbScale
 70
     0
300
1:16
140
1.0
141
16.0
290
     0
  0
SCALE
  5
4F
102
{ACAD_REACTORS
330
47
102
}
330
47
100
AcDbScale
 70
     0
300
1:20
140
1.0
141
20.0
290
     0
  0
SCALE
  5
50
102
{ACAD_REACTORS
330
47
102
}
330
47
100
AcDbScale
 70
     0
300
1:30
140
1.0
141
30.0
290
     0
  0
SCALE
  5
51
102
{ACAD_REACTORS
330
47
102
}
330
47
100
AcDbScale
 70
     0
300
1:40
140
1.0
141
40.0
290
     0
  0
SCALE
  5
52
102
{ACAD_REACTORS
330
47
102
}
330
47
100
AcDbScale
 70
     0
300
1:50
140
1.0
141
50.0
290
     0
  0
SCALE
  5
53
102
{ACAD_REACTORS
330
47
102
}
330
47
100
AcDbScale
 70
     0
300
1:100
140
1.0
141
100.0
290
     0
  0
SCALE
  5
54
102
{ACAD_REACTORS
330
47
102
}
330
47
100
AcDbScale
 70
     0
300
2:1
140
2.0
141
1.0
290
     0
  0
SCALE
  5
55
102
{ACAD_REACTORS
330
47
102
}
330
47
100
AcDbScale
 70
     0
300
4:1
140
4.0
141
1.0
290
     0
  0
SCALE
  5
56
102
{ACAD_REACTORS
330
47
102
}
330
47
100
AcDbScale
 70
     0
300
8:1
140
8.0
141
1.0
290
     0
  0
SCALE
  5
57
102
{ACAD_REACTORS
330
47
102
}
330
47
100
AcDbScale
 70
     0
300
10:1
140
10.0
141
1.0
290
     0
  0
SCALE
  5
58
102
{ACAD_REACTORS
330
47
102
}
330
47
100
AcDbScale
 70
     0
300
100:1
140
100.0
141
1.0
290
     0
  0
SCALE
  5
59
102
{ACAD_REACTORS
330
47
102
}
330
47
100
AcDbScale
 70
     0
300
1/128" = 1'-0"
140
0.0078125
141
12.0
290
     0
  0
SCALE
  5
5A
102
{ACAD_REACTORS
330
47
102
}
330
47
100
AcDbScale
 70
     0
300
1/64" = 1'-0"
140
0.015625
141
12.0
290
     0
  0
SCALE
  5
5B
102
{ACAD_REACTORS
330
47
102
}
330
47
100
AcDbScale
 70
     0
300
1/32" = 1'-0"
140
0.03125
141
12.0
290
     0
  0
SCALE
  5
5C
102
{ACAD_REACTORS
330
47
102
}
330
47
100
AcDbScale
 70
     0
300
1/16" = 1'-0"
140
0.0625
141
12.0
290
     0
  0
SCALE
  5
5D
102
{ACAD_REACTORS
330
47
102
}
330
47
100
AcDbScale
 70
     0
300
3/32" = 1'-0"
140
0.09375
141
12.0
290
     0
  0
SCALE
  5
5E
102
{ACAD_REACTORS
330
47
102
}
330
47
100
AcDbScale
 70
     0
300
1/8" = 1'-0"
140
0.125
141
12.0
290
     0
  0
SCALE
  5
5F
102
{ACAD_REACTORS
330
47
102
}
330
47
100
AcDbScale
 70
     0
300
3/16" = 1'-0"
140
0.1875
141
12.0
290
     0
  0
SCALE
  5
60
102
{ACAD_REACTORS
330
47
102
}
330
47
100
AcDbScale
 70
     0
300
1/4" = 1'-0"
140
0.25
141
12.0
290
     0
  0
SCALE
  5
61
102
{ACAD_REACTORS
330
47
102
}
330
47
100
AcDbScale
 70
     0
300
3/8" = 1'-0"
140
0.375
141
12.0
290
     0
  0
SCALE
  5
62
102
{ACAD_REACTORS
330
47
102
}
330
47
100
AcDbScale
 70
     0
300
1/2" = 1'-0"
140
0.5
141
12.0
290
     0
  0
SCALE
  5
63
102
{ACAD_REACTORS
330
47
102
}
330
47
100
AcDbScale
 70
     0
300
3/4" = 1'-0"
140
0.75
141
12.0
290
     0
  0
SCALE
  5
64
102
{ACAD_REACTORS
330
47
102
}
330
47
100
AcDbScale
 70
     0
300
1" = 1'-0"
140
1.0
141
12.0
290
     0
  0
SCALE
  5
65
102
{ACAD_REACTORS
330
47
102
}
330
47
100
AcDbScale
 70
     0
300
1-1/2" = 1'-0"
140
1.5
141
12.0
290
     0
  0
SCALE
  5
66
102
{ACAD_REACTORS
330
47
102
}
330
47
100
AcDbScale
 70
     0
300
3" = 1'-0"
140
3.0
141
12.0
290
     0
  0
SCALE
  5
67
102
{ACAD_REACTORS
330
47
102
}
330
47
100
AcDbScale
 70
     0
300
6" = 1'-0"
140
6.0
141
12.0
290
     0
  0
SCALE
  5
68
102
{ACAD_REACTORS
330
47
102
}
330
47
100
AcDbScale
 70
     0
300
1'-0" = 1'-0"
140
12.0
141
12.0
290
     0
  0
ENDSEC
  0
EOF
